<?xml version="1.0" encoding="UTF-8" standalone="no"?>
<!DOCTYPE svg PUBLIC "-//W3C//DTD SVG 1.1//EN"
 "http://www.w3.org/Graphics/SVG/1.1/DTD/svg11.dtd">
<!-- Generated by graphviz version 2.47.0 (20210316.0004)
 -->
<!-- Title: dependencies Pages: 1 -->
<svg width="851pt" height="211pt"
 viewBox="0.00 0.00 851.00 211.00" xmlns="http://www.w3.org/2000/svg" xmlns:xlink="http://www.w3.org/1999/xlink">
<g id="graph0" class="graph" transform="scale(1 1) rotate(0) translate(4 207)">
<title>dependencies</title>
<polygon fill="white" stroke="transparent" points="-4,4 -4,-207 847,-207 847,4 -4,4"/>
<text text-anchor="start" x="400.51" y="-42.4" font-family="Times-12" font-weight="bold" font-size="14.00">Legend</text>
<polygon fill="#ffffb3" stroke="transparent" points="187.5,-10 187.5,-30 207.5,-30 207.5,-10 187.5,-10"/>
<text text-anchor="start" x="211.13" y="-15.4" font-family="Times-12" font-size="14.00"> &#160;Declarations</text>
<polygon fill="#8dd3c7" stroke="transparent" points="300.5,-10 300.5,-30 320.5,-30 320.5,-10 300.5,-10"/>
<text text-anchor="start" x="324.23" y="-15.4" font-family="Times-12" font-size="14.00"> &#160;Module</text>
<polygon fill="#80b1d3" stroke="transparent" points="386.5,-10 386.5,-30 406.5,-30 406.5,-10 386.5,-10"/>
<text text-anchor="start" x="410.28" y="-15.4" font-family="Times-12" font-size="14.00"> &#160;Bootstrap</text>
<polygon fill="#fdb462" stroke="transparent" points="483.5,-10 483.5,-30 503.5,-30 503.5,-10 483.5,-10"/>
<text text-anchor="start" x="507.17" y="-15.4" font-family="Times-12" font-size="14.00"> &#160;Providers</text>
<polygon fill="#fb8072" stroke="transparent" points="579.5,-10 579.5,-30 599.5,-30 599.5,-10 579.5,-10"/>
<text text-anchor="start" x="603.23" y="-15.4" font-family="Times-12" font-size="14.00"> &#160;Exports</text>
<g id="clust1" class="cluster">
<title>cluster_VulnerabilitiesModule</title>
<polygon fill="none" stroke="black" stroke-dasharray="1,5" points="8,-70 8,-195 835,-195 835,-70 8,-70"/>
</g>
<g id="clust6" class="cluster">
<title>cluster_VulnerabilitiesModule_providers</title>
<polygon fill="none" stroke="black" points="410,-78 410,-130 827,-130 827,-78 410,-78"/>
</g>
<g id="clust3" class="cluster">
<title>cluster_VulnerabilitiesModule_imports</title>
<polygon fill="none" stroke="black" points="16,-78 16,-130 402,-130 402,-78 16,-78"/>
</g>
<!-- DependencySchemaModule -->
<g id="node1" class="node">
<title>DependencySchemaModule</title>
<polygon fill="#8dd3c7" stroke="black" points="393.83,-122 390.83,-126 369.83,-126 366.83,-122 220.17,-122 220.17,-86 393.83,-86 393.83,-122"/>
<text text-anchor="middle" x="307" y="-99.8" font-family="Times,serif" font-size="14.00">DependencySchemaModule</text>
</g>
<!-- VulnerabilitiesModule -->
<g id="node3" class="node">
<title>VulnerabilitiesModule</title>
<polygon fill="#8dd3c7" stroke="black" points="482.25,-187 479.25,-191 458.25,-191 455.25,-187 339.75,-187 339.75,-151 482.25,-151 482.25,-187"/>
<text text-anchor="middle" x="411" y="-164.8" font-family="Times,serif" font-size="14.00">VulnerabilitiesModule</text>
</g>
<!-- DependencySchemaModule&#45;&gt;VulnerabilitiesModule -->
<g id="edge1" class="edge">
<title>DependencySchemaModule&#45;&gt;VulnerabilitiesModule</title>
<path fill="none" stroke="black" d="M366.77,-122.11C366.77,-122.11 366.77,-140.99 366.77,-140.99"/>
<polygon fill="black" stroke="black" points="363.27,-140.99 366.77,-150.99 370.27,-140.99 363.27,-140.99"/>
</g>
<!-- VulnerabilitySchemaModule -->
<g id="node2" class="node">
<title>VulnerabilitySchemaModule</title>
<polygon fill="#8dd3c7" stroke="black" points="202.02,-122 199.02,-126 178.02,-126 175.02,-122 23.98,-122 23.98,-86 202.02,-86 202.02,-122"/>
<text text-anchor="middle" x="113" y="-99.8" font-family="Times,serif" font-size="14.00">VulnerabilitySchemaModule</text>
</g>
<!-- VulnerabilitySchemaModule&#45;&gt;VulnerabilitiesModule -->
<g id="edge2" class="edge">
<title>VulnerabilitySchemaModule&#45;&gt;VulnerabilitiesModule</title>
<path fill="none" stroke="black" d="M113,-122.11C113,-141.34 113,-169 113,-169 113,-169 329.62,-169 329.62,-169"/>
<polygon fill="black" stroke="black" points="329.62,-172.5 339.62,-169 329.62,-165.5 329.62,-172.5"/>
</g>
<!-- DependenciesService -->
<g id="node4" class="node">
<title>DependenciesService</title>
<ellipse fill="#fdb462" stroke="black" cx="725" cy="-104" rx="94.3" ry="18"/>
<text text-anchor="middle" x="725" y="-99.8" font-family="Times,serif" font-size="14.00">DependenciesService</text>
</g>
<!-- DependenciesService&#45;&gt;VulnerabilitiesModule -->
<g id="edge3" class="edge">
<title>DependenciesService&#45;&gt;VulnerabilitiesModule</title>
<path fill="none" stroke="black" d="M725,-122.11C725,-141.34 725,-169 725,-169 725,-169 492.25,-169 492.25,-169"/>
<polygon fill="black" stroke="black" points="492.25,-165.5 482.25,-169 492.25,-172.5 492.25,-165.5"/>
</g>
<!-- VulnerabilitiesService -->
<g id="node5" class="node">
<title>VulnerabilitiesService</title>
<ellipse fill="#fdb462" stroke="black" cx="515" cy="-104" rx="97.26" ry="18"/>
<text text-anchor="middle" x="515" y="-99.8" font-family="Times,serif" font-size="14.00">VulnerabilitiesService</text>
</g>
<!-- VulnerabilitiesService&#45;&gt;VulnerabilitiesModule -->
<g id="edge4" class="edge">
<title>VulnerabilitiesService&#45;&gt;VulnerabilitiesModule</title>
<path fill="none" stroke="black" d="M450,-117.47C450,-117.47 450,-140.86 450,-140.86"/>
<polygon fill="black" stroke="black" points="446.5,-140.86 450,-150.86 453.5,-140.86 446.5,-140.86"/>
</g>
</g>
</svg>
