<?xml version="1.0" encoding="UTF-8" standalone="no"?>
<!DOCTYPE svg PUBLIC "-//W3C//DTD SVG 1.1//EN"
 "http://www.w3.org/Graphics/SVG/1.1/DTD/svg11.dtd">
<!-- Generated by graphviz version 2.47.0 (20210316.0004)
 -->
<!-- Title: dependencies Pages: 1 -->
<svg width="1149pt" height="211pt"
 viewBox="0.00 0.00 1149.00 211.00" xmlns="http://www.w3.org/2000/svg" xmlns:xlink="http://www.w3.org/1999/xlink">
<g id="graph0" class="graph" transform="scale(1 1) rotate(0) translate(4 207)">
<title>dependencies</title>
<polygon fill="white" stroke="transparent" points="-4,4 -4,-207 1145,-207 1145,4 -4,4"/>
<text text-anchor="start" x="549.51" y="-42.4" font-family="Times-12" font-weight="bold" font-size="14.00">Legend</text>
<polygon fill="#ffffb3" stroke="transparent" points="336.5,-10 336.5,-30 356.5,-30 356.5,-10 336.5,-10"/>
<text text-anchor="start" x="360.13" y="-15.4" font-family="Times-12" font-size="14.00"> &#160;Declarations</text>
<polygon fill="#8dd3c7" stroke="transparent" points="449.5,-10 449.5,-30 469.5,-30 469.5,-10 449.5,-10"/>
<text text-anchor="start" x="473.23" y="-15.4" font-family="Times-12" font-size="14.00"> &#160;Module</text>
<polygon fill="#80b1d3" stroke="transparent" points="535.5,-10 535.5,-30 555.5,-30 555.5,-10 535.5,-10"/>
<text text-anchor="start" x="559.28" y="-15.4" font-family="Times-12" font-size="14.00"> &#160;Bootstrap</text>
<polygon fill="#fdb462" stroke="transparent" points="632.5,-10 632.5,-30 652.5,-30 652.5,-10 632.5,-10"/>
<text text-anchor="start" x="656.17" y="-15.4" font-family="Times-12" font-size="14.00"> &#160;Providers</text>
<polygon fill="#fb8072" stroke="transparent" points="728.5,-10 728.5,-30 748.5,-30 748.5,-10 728.5,-10"/>
<text text-anchor="start" x="752.23" y="-15.4" font-family="Times-12" font-size="14.00"> &#160;Exports</text>
<g id="clust1" class="cluster">
<title>cluster_AuthModule</title>
<polygon fill="none" stroke="black" stroke-dasharray="1,5" points="8,-70 8,-195 1133,-195 1133,-70 8,-70"/>
</g>
<g id="clust3" class="cluster">
<title>cluster_AuthModule_imports</title>
<polygon fill="none" stroke="black" points="685,-78 685,-130 1125,-130 1125,-78 685,-78"/>
</g>
<g id="clust6" class="cluster">
<title>cluster_AuthModule_providers</title>
<polygon fill="none" stroke="black" points="16,-78 16,-130 677,-130 677,-78 16,-78"/>
</g>
<!-- EmailModule -->
<g id="node1" class="node">
<title>EmailModule</title>
<polygon fill="#8dd3c7" stroke="black" points="1117.49,-122 1114.49,-126 1093.49,-126 1090.49,-122 1024.51,-122 1024.51,-86 1117.49,-86 1117.49,-122"/>
<text text-anchor="middle" x="1071" y="-99.8" font-family="Times,serif" font-size="14.00">EmailModule</text>
</g>
<!-- AuthModule -->
<g id="node4" class="node">
<title>AuthModule</title>
<polygon fill="#8dd3c7" stroke="black" points="653.55,-187 650.55,-191 629.55,-191 626.55,-187 566.45,-187 566.45,-151 653.55,-151 653.55,-187"/>
<text text-anchor="middle" x="610" y="-164.8" font-family="Times,serif" font-size="14.00">AuthModule</text>
</g>
<!-- EmailModule&#45;&gt;AuthModule -->
<g id="edge1" class="edge">
<title>EmailModule&#45;&gt;AuthModule</title>
<path fill="none" stroke="black" d="M1071,-122.29C1071,-144.21 1071,-178 1071,-178 1071,-178 663.79,-178 663.79,-178"/>
<polygon fill="black" stroke="black" points="663.79,-174.5 653.79,-178 663.79,-181.5 663.79,-174.5"/>
</g>
<!-- OTPSecretSchemaModule -->
<g id="node2" class="node">
<title>OTPSecretSchemaModule</title>
<polygon fill="#8dd3c7" stroke="black" points="1006.79,-122 1003.79,-126 982.79,-126 979.79,-122 841.21,-122 841.21,-86 1006.79,-86 1006.79,-122"/>
<text text-anchor="middle" x="924" y="-99.8" font-family="Times,serif" font-size="14.00">OTPSecretSchemaModule</text>
</g>
<!-- OTPSecretSchemaModule&#45;&gt;AuthModule -->
<g id="edge2" class="edge">
<title>OTPSecretSchemaModule&#45;&gt;AuthModule</title>
<path fill="none" stroke="black" d="M924,-122.11C924,-141.34 924,-169 924,-169 924,-169 663.66,-169 663.66,-169"/>
<polygon fill="black" stroke="black" points="663.66,-165.5 653.66,-169 663.66,-172.5 663.66,-165.5"/>
</g>
<!-- UserSchemaModule -->
<g id="node3" class="node">
<title>UserSchemaModule</title>
<polygon fill="#8dd3c7" stroke="black" points="823.29,-122 820.29,-126 799.29,-126 796.29,-122 692.71,-122 692.71,-86 823.29,-86 823.29,-122"/>
<text text-anchor="middle" x="758" y="-99.8" font-family="Times,serif" font-size="14.00">UserSchemaModule</text>
</g>
<!-- UserSchemaModule&#45;&gt;AuthModule -->
<g id="edge3" class="edge">
<title>UserSchemaModule&#45;&gt;AuthModule</title>
<path fill="none" stroke="black" d="M758,-122.03C758,-138.4 758,-160 758,-160 758,-160 663.6,-160 663.6,-160"/>
<polygon fill="black" stroke="black" points="663.6,-156.5 653.6,-160 663.6,-163.5 663.6,-156.5"/>
</g>
<!-- AuthService -->
<g id="node5" class="node">
<title>AuthService</title>
<ellipse fill="#fdb462" stroke="black" cx="610" cy="-104" rx="59.11" ry="18"/>
<text text-anchor="middle" x="610" y="-99.8" font-family="Times,serif" font-size="14.00">AuthService</text>
</g>
<!-- AuthService&#45;&gt;AuthModule -->
<g id="edge4" class="edge">
<title>AuthService&#45;&gt;AuthModule</title>
<path fill="none" stroke="black" d="M610,-122.11C610,-122.11 610,-140.99 610,-140.99"/>
<polygon fill="black" stroke="black" points="606.5,-140.99 610,-150.99 613.5,-140.99 606.5,-140.99"/>
</g>
<!-- EmailService -->
<g id="node6" class="node">
<title>EmailService</title>
<ellipse fill="#fdb462" stroke="black" cx="470" cy="-104" rx="63.12" ry="18"/>
<text text-anchor="middle" x="470" y="-99.8" font-family="Times,serif" font-size="14.00">EmailService</text>
</g>
<!-- EmailService&#45;&gt;AuthModule -->
<g id="edge5" class="edge">
<title>EmailService&#45;&gt;AuthModule</title>
<path fill="none" stroke="black" d="M470,-122.03C470,-138.4 470,-160 470,-160 470,-160 556.09,-160 556.09,-160"/>
<polygon fill="black" stroke="black" points="556.09,-163.5 566.09,-160 556.09,-156.5 556.09,-163.5"/>
</g>
<!-- JWTRefreshTokenStrategy -->
<g id="node7" class="node">
<title>JWTRefreshTokenStrategy</title>
<ellipse fill="#fdb462" stroke="black" cx="272" cy="-104" rx="116.87" ry="18"/>
<text text-anchor="middle" x="272" y="-99.8" font-family="Times,serif" font-size="14.00">JWTRefreshTokenStrategy</text>
</g>
<!-- JWTRefreshTokenStrategy&#45;&gt;AuthModule -->
<g id="edge6" class="edge">
<title>JWTRefreshTokenStrategy&#45;&gt;AuthModule</title>
<path fill="none" stroke="black" d="M272,-122.11C272,-141.34 272,-169 272,-169 272,-169 556.16,-169 556.16,-169"/>
<polygon fill="black" stroke="black" points="556.16,-172.5 566.16,-169 556.16,-165.5 556.16,-172.5"/>
</g>
<!-- JwtStrategy -->
<g id="node8" class="node">
<title>JwtStrategy</title>
<ellipse fill="#fdb462" stroke="black" cx="81" cy="-104" rx="56.76" ry="18"/>
<text text-anchor="middle" x="81" y="-99.8" font-family="Times,serif" font-size="14.00">JwtStrategy</text>
</g>
<!-- JwtStrategy&#45;&gt;AuthModule -->
<g id="edge7" class="edge">
<title>JwtStrategy&#45;&gt;AuthModule</title>
<path fill="none" stroke="black" d="M81,-122.29C81,-144.21 81,-178 81,-178 81,-178 556.26,-178 556.26,-178"/>
<polygon fill="black" stroke="black" points="556.26,-181.5 566.26,-178 556.26,-174.5 556.26,-181.5"/>
</g>
</g>
</svg>
