<?xml version="1.0" encoding="UTF-8" standalone="no"?>
<!DOCTYPE svg PUBLIC "-//W3C//DTD SVG 1.1//EN"
 "http://www.w3.org/Graphics/SVG/1.1/DTD/svg11.dtd">
<!-- Generated by graphviz version 2.47.0 (20210316.0004)
 -->
<!-- Title: dependencies Pages: 1 -->
<svg width="504pt" height="211pt"
 viewBox="0.00 0.00 504.00 211.00" xmlns="http://www.w3.org/2000/svg" xmlns:xlink="http://www.w3.org/1999/xlink">
<g id="graph0" class="graph" transform="scale(1 1) rotate(0) translate(4 207)">
<title>dependencies</title>
<polygon fill="white" stroke="transparent" points="-4,4 -4,-207 500,-207 500,4 -4,4"/>
<text text-anchor="start" x="227.01" y="-42.4" font-family="Times-12" font-weight="bold" font-size="14.00">Legend</text>
<polygon fill="#ffffb3" stroke="transparent" points="14,-10 14,-30 34,-30 34,-10 14,-10"/>
<text text-anchor="start" x="37.63" y="-15.4" font-family="Times-12" font-size="14.00"> &#160;Declarations</text>
<polygon fill="#8dd3c7" stroke="transparent" points="127,-10 127,-30 147,-30 147,-10 127,-10"/>
<text text-anchor="start" x="150.73" y="-15.4" font-family="Times-12" font-size="14.00"> &#160;Module</text>
<polygon fill="#80b1d3" stroke="transparent" points="213,-10 213,-30 233,-30 233,-10 213,-10"/>
<text text-anchor="start" x="236.78" y="-15.4" font-family="Times-12" font-size="14.00"> &#160;Bootstrap</text>
<polygon fill="#fdb462" stroke="transparent" points="310,-10 310,-30 330,-30 330,-10 310,-10"/>
<text text-anchor="start" x="333.67" y="-15.4" font-family="Times-12" font-size="14.00"> &#160;Providers</text>
<polygon fill="#fb8072" stroke="transparent" points="406,-10 406,-30 426,-30 426,-10 406,-10"/>
<text text-anchor="start" x="429.73" y="-15.4" font-family="Times-12" font-size="14.00"> &#160;Exports</text>
<g id="clust1" class="cluster">
<title>cluster_LicensesModule</title>
<polygon fill="none" stroke="black" stroke-dasharray="1,5" points="72,-70 72,-195 424,-195 424,-70 72,-70"/>
</g>
<g id="clust6" class="cluster">
<title>cluster_LicensesModule_providers</title>
<polygon fill="none" stroke="black" points="252,-78 252,-130 416,-130 416,-78 252,-78"/>
</g>
<g id="clust3" class="cluster">
<title>cluster_LicensesModule_imports</title>
<polygon fill="none" stroke="black" points="80,-78 80,-130 244,-130 244,-78 80,-78"/>
</g>
<!-- LicenseSchemaModule -->
<g id="node1" class="node">
<title>LicenseSchemaModule</title>
<polygon fill="#8dd3c7" stroke="black" points="235.9,-122 232.9,-126 211.9,-126 208.9,-122 88.1,-122 88.1,-86 235.9,-86 235.9,-122"/>
<text text-anchor="middle" x="162" y="-99.8" font-family="Times,serif" font-size="14.00">LicenseSchemaModule</text>
</g>
<!-- LicensesModule -->
<g id="node2" class="node">
<title>LicensesModule</title>
<polygon fill="#8dd3c7" stroke="black" points="302.03,-187 299.03,-191 278.03,-191 275.03,-187 193.97,-187 193.97,-151 302.03,-151 302.03,-187"/>
<text text-anchor="middle" x="248" y="-164.8" font-family="Times,serif" font-size="14.00">LicensesModule</text>
</g>
<!-- LicenseSchemaModule&#45;&gt;LicensesModule -->
<g id="edge1" class="edge">
<title>LicenseSchemaModule&#45;&gt;LicensesModule</title>
<path fill="none" stroke="black" d="M214.72,-122.11C214.72,-122.11 214.72,-140.99 214.72,-140.99"/>
<polygon fill="black" stroke="black" points="211.22,-140.99 214.72,-150.99 218.22,-140.99 211.22,-140.99"/>
</g>
<!-- LicensesService -->
<g id="node3" class="node">
<title>LicensesService</title>
<ellipse fill="#fdb462" stroke="black" cx="334" cy="-104" rx="73.55" ry="18"/>
<text text-anchor="middle" x="334" y="-99.8" font-family="Times,serif" font-size="14.00">LicensesService</text>
</g>
<!-- LicensesService&#45;&gt;LicensesModule -->
<g id="edge2" class="edge">
<title>LicensesService&#45;&gt;LicensesModule</title>
<path fill="none" stroke="black" d="M281.24,-116.84C281.24,-116.84 281.24,-140.52 281.24,-140.52"/>
<polygon fill="black" stroke="black" points="277.74,-140.52 281.24,-150.52 284.74,-140.52 277.74,-140.52"/>
</g>
</g>
</svg>
