<?xml version="1.0" encoding="UTF-8" standalone="no"?>
<!DOCTYPE svg PUBLIC "-//W3C//DTD SVG 1.1//EN"
 "http://www.w3.org/Graphics/SVG/1.1/DTD/svg11.dtd">
<!-- Generated by graphviz version 2.47.0 (20210316.0004)
 -->
<!-- Title: dependencies Pages: 1 -->
<svg width="1293pt" height="284pt"
 viewBox="0.00 0.00 1293.00 284.00" xmlns="http://www.w3.org/2000/svg" xmlns:xlink="http://www.w3.org/1999/xlink">
<g id="graph0" class="graph" transform="scale(1 1) rotate(0) translate(4 280)">
<title>dependencies</title>
<polygon fill="white" stroke="transparent" points="-4,4 -4,-280 1289,-280 1289,4 -4,4"/>
<text text-anchor="start" x="621.51" y="-42.4" font-family="Times-12" font-weight="bold" font-size="14.00">Legend</text>
<polygon fill="#ffffb3" stroke="transparent" points="408.5,-10 408.5,-30 428.5,-30 428.5,-10 408.5,-10"/>
<text text-anchor="start" x="432.13" y="-15.4" font-family="Times-12" font-size="14.00"> &#160;Declarations</text>
<polygon fill="#8dd3c7" stroke="transparent" points="521.5,-10 521.5,-30 541.5,-30 541.5,-10 521.5,-10"/>
<text text-anchor="start" x="545.23" y="-15.4" font-family="Times-12" font-size="14.00"> &#160;Module</text>
<polygon fill="#80b1d3" stroke="transparent" points="607.5,-10 607.5,-30 627.5,-30 627.5,-10 607.5,-10"/>
<text text-anchor="start" x="631.28" y="-15.4" font-family="Times-12" font-size="14.00"> &#160;Bootstrap</text>
<polygon fill="#fdb462" stroke="transparent" points="704.5,-10 704.5,-30 724.5,-30 724.5,-10 704.5,-10"/>
<text text-anchor="start" x="728.17" y="-15.4" font-family="Times-12" font-size="14.00"> &#160;Providers</text>
<polygon fill="#fb8072" stroke="transparent" points="800.5,-10 800.5,-30 820.5,-30 820.5,-10 800.5,-10"/>
<text text-anchor="start" x="824.23" y="-15.4" font-family="Times-12" font-size="14.00"> &#160;Exports</text>
<g id="clust1" class="cluster">
<title>cluster_GithubModule</title>
<polygon fill="none" stroke="black" stroke-dasharray="1,5" points="8,-70 8,-268 1277,-268 1277,-70 8,-70"/>
</g>
<g id="clust6" class="cluster">
<title>cluster_GithubModule_providers</title>
<polygon fill="none" stroke="black" points="1089,-78 1089,-130 1269,-130 1269,-78 1089,-78"/>
</g>
<g id="clust4" class="cluster">
<title>cluster_GithubModule_exports</title>
<polygon fill="none" stroke="black" points="533,-208 533,-260 671,-260 671,-208 533,-208"/>
</g>
<g id="clust3" class="cluster">
<title>cluster_GithubModule_imports</title>
<polygon fill="none" stroke="black" points="16,-78 16,-130 1081,-130 1081,-78 16,-78"/>
</g>
<!-- DependenciesModule -->
<g id="node1" class="node">
<title>DependenciesModule</title>
<polygon fill="#8dd3c7" stroke="black" points="1073.06,-122 1070.06,-126 1049.06,-126 1046.06,-122 934.94,-122 934.94,-86 1073.06,-86 1073.06,-122"/>
<text text-anchor="middle" x="1004" y="-99.8" font-family="Times,serif" font-size="14.00">DependenciesModule</text>
</g>
<!-- GithubModule -->
<g id="node7" class="node">
<title>GithubModule</title>
<polygon fill="#8dd3c7" stroke="black" points="651.44,-187 648.44,-191 627.44,-191 624.44,-187 552.56,-187 552.56,-151 651.44,-151 651.44,-187"/>
<text text-anchor="middle" x="602" y="-164.8" font-family="Times,serif" font-size="14.00">GithubModule</text>
</g>
<!-- DependenciesModule&#45;&gt;GithubModule -->
<g id="edge1" class="edge">
<title>DependenciesModule&#45;&gt;GithubModule</title>
<path fill="none" stroke="black" d="M1004,-122.11C1004,-141.34 1004,-169 1004,-169 1004,-169 661.29,-169 661.29,-169"/>
<polygon fill="black" stroke="black" points="661.29,-165.5 651.29,-169 661.29,-172.5 661.29,-165.5"/>
</g>
<!-- DependencyRepositorySchemaModule -->
<g id="node2" class="node">
<title>DependencyRepositorySchemaModule</title>
<polygon fill="#8dd3c7" stroke="black" points="916.77,-122 913.77,-126 892.77,-126 889.77,-122 681.23,-122 681.23,-86 916.77,-86 916.77,-122"/>
<text text-anchor="middle" x="799" y="-99.8" font-family="Times,serif" font-size="14.00">DependencyRepositorySchemaModule</text>
</g>
<!-- DependencyRepositorySchemaModule&#45;&gt;GithubModule -->
<g id="edge2" class="edge">
<title>DependencyRepositorySchemaModule&#45;&gt;GithubModule</title>
<path fill="none" stroke="black" d="M799,-122.03C799,-138.4 799,-160 799,-160 799,-160 661.46,-160 661.46,-160"/>
<polygon fill="black" stroke="black" points="661.46,-156.5 651.46,-160 661.46,-163.5 661.46,-156.5"/>
</g>
<!-- GithubAppModule -->
<g id="node3" class="node">
<title>GithubAppModule</title>
<polygon fill="#8dd3c7" stroke="black" points="663.05,-122 660.05,-126 639.05,-126 636.05,-122 540.95,-122 540.95,-86 663.05,-86 663.05,-122"/>
<text text-anchor="middle" x="602" y="-99.8" font-family="Times,serif" font-size="14.00">GithubAppModule</text>
</g>
<!-- GithubAppModule&#45;&gt;GithubModule -->
<g id="edge3" class="edge">
<title>GithubAppModule&#45;&gt;GithubModule</title>
<path fill="none" stroke="black" d="M602,-122.11C602,-122.11 602,-140.99 602,-140.99"/>
<polygon fill="black" stroke="black" points="598.5,-140.99 602,-150.99 605.5,-140.99 598.5,-140.99"/>
</g>
<!-- GithubAppSchemaModule -->
<g id="node4" class="node">
<title>GithubAppSchemaModule</title>
<polygon fill="#8dd3c7" stroke="black" points="522.36,-122 519.36,-126 498.36,-126 495.36,-122 355.64,-122 355.64,-86 522.36,-86 522.36,-122"/>
<text text-anchor="middle" x="439" y="-99.8" font-family="Times,serif" font-size="14.00">GithubAppSchemaModule</text>
</g>
<!-- GithubAppSchemaModule&#45;&gt;GithubModule -->
<g id="edge4" class="edge">
<title>GithubAppSchemaModule&#45;&gt;GithubModule</title>
<path fill="none" stroke="black" d="M439,-122.03C439,-138.4 439,-160 439,-160 439,-160 542.65,-160 542.65,-160"/>
<polygon fill="black" stroke="black" points="542.65,-163.5 552.65,-160 542.65,-156.5 542.65,-163.5"/>
</g>
<!-- RepositorySchemaModule -->
<g id="node5" class="node">
<title>RepositorySchemaModule</title>
<polygon fill="#8dd3c7" stroke="black" points="337.8,-122 334.8,-126 313.8,-126 310.8,-122 172.2,-122 172.2,-86 337.8,-86 337.8,-122"/>
<text text-anchor="middle" x="255" y="-99.8" font-family="Times,serif" font-size="14.00">RepositorySchemaModule</text>
</g>
<!-- RepositorySchemaModule&#45;&gt;GithubModule -->
<g id="edge5" class="edge">
<title>RepositorySchemaModule&#45;&gt;GithubModule</title>
<path fill="none" stroke="black" d="M255,-122.11C255,-141.34 255,-169 255,-169 255,-169 542.65,-169 542.65,-169"/>
<polygon fill="black" stroke="black" points="542.65,-172.5 552.65,-169 542.65,-165.5 542.65,-172.5"/>
</g>
<!-- UserSchemaModule -->
<g id="node6" class="node">
<title>UserSchemaModule</title>
<polygon fill="#8dd3c7" stroke="black" points="154.29,-122 151.29,-126 130.29,-126 127.29,-122 23.71,-122 23.71,-86 154.29,-86 154.29,-122"/>
<text text-anchor="middle" x="89" y="-99.8" font-family="Times,serif" font-size="14.00">UserSchemaModule</text>
</g>
<!-- UserSchemaModule&#45;&gt;GithubModule -->
<g id="edge6" class="edge">
<title>UserSchemaModule&#45;&gt;GithubModule</title>
<path fill="none" stroke="black" d="M89,-122.29C89,-144.21 89,-178 89,-178 89,-178 542.35,-178 542.35,-178"/>
<polygon fill="black" stroke="black" points="542.35,-181.5 552.35,-178 542.35,-174.5 542.35,-181.5"/>
</g>
<!-- RepositoryService  -->
<g id="node8" class="node">
<title>RepositoryService </title>
<polygon fill="#fb8072" stroke="black" points="663.42,-252 540.58,-252 540.58,-216 663.42,-216 663.42,-252"/>
<text text-anchor="middle" x="602" y="-229.8" font-family="Times,serif" font-size="14.00">RepositoryService </text>
</g>
<!-- GithubModule&#45;&gt;RepositoryService  -->
<g id="edge7" class="edge">
<title>GithubModule&#45;&gt;RepositoryService </title>
<path fill="none" stroke="black" stroke-dasharray="5,2" d="M602,-187.11C602,-187.11 602,-205.99 602,-205.99"/>
<polygon fill="black" stroke="black" points="598.5,-205.99 602,-215.99 605.5,-205.99 598.5,-205.99"/>
</g>
<!-- RepositoryService -->
<g id="node9" class="node">
<title>RepositoryService</title>
<ellipse fill="#fdb462" stroke="black" cx="1179" cy="-104" rx="82.24" ry="18"/>
<text text-anchor="middle" x="1179" y="-99.8" font-family="Times,serif" font-size="14.00">RepositoryService</text>
</g>
<!-- RepositoryService&#45;&gt;GithubModule -->
<g id="edge8" class="edge">
<title>RepositoryService&#45;&gt;GithubModule</title>
<path fill="none" stroke="black" d="M1179,-122.29C1179,-144.21 1179,-178 1179,-178 1179,-178 661.44,-178 661.44,-178"/>
<polygon fill="black" stroke="black" points="661.44,-174.5 651.44,-178 661.44,-181.5 661.44,-174.5"/>
</g>
</g>
</svg>
