<?xml version="1.0" encoding="UTF-8" standalone="no"?>
<!DOCTYPE svg PUBLIC "-//W3C//DTD SVG 1.1//EN"
 "http://www.w3.org/Graphics/SVG/1.1/DTD/svg11.dtd">
<!-- Generated by graphviz version 2.47.0 (20210316.0004)
 -->
<!-- Title: dependencies Pages: 1 -->
<svg width="2650pt" height="211pt"
 viewBox="0.00 0.00 2650.00 211.00" xmlns="http://www.w3.org/2000/svg" xmlns:xlink="http://www.w3.org/1999/xlink">
<g id="graph0" class="graph" transform="scale(1 1) rotate(0) translate(4 207)">
<title>dependencies</title>
<polygon fill="white" stroke="transparent" points="-4,4 -4,-207 2646,-207 2646,4 -4,4"/>
<text text-anchor="start" x="1300.01" y="-42.4" font-family="Times-12" font-weight="bold" font-size="14.00">Legend</text>
<polygon fill="#ffffb3" stroke="transparent" points="1087,-10 1087,-30 1107,-30 1107,-10 1087,-10"/>
<text text-anchor="start" x="1110.63" y="-15.4" font-family="Times-12" font-size="14.00"> &#160;Declarations</text>
<polygon fill="#8dd3c7" stroke="transparent" points="1200,-10 1200,-30 1220,-30 1220,-10 1200,-10"/>
<text text-anchor="start" x="1223.73" y="-15.4" font-family="Times-12" font-size="14.00"> &#160;Module</text>
<polygon fill="#80b1d3" stroke="transparent" points="1286,-10 1286,-30 1306,-30 1306,-10 1286,-10"/>
<text text-anchor="start" x="1309.78" y="-15.4" font-family="Times-12" font-size="14.00"> &#160;Bootstrap</text>
<polygon fill="#fdb462" stroke="transparent" points="1383,-10 1383,-30 1403,-30 1403,-10 1383,-10"/>
<text text-anchor="start" x="1406.67" y="-15.4" font-family="Times-12" font-size="14.00"> &#160;Providers</text>
<polygon fill="#fb8072" stroke="transparent" points="1479,-10 1479,-30 1499,-30 1499,-10 1479,-10"/>
<text text-anchor="start" x="1502.73" y="-15.4" font-family="Times-12" font-size="14.00"> &#160;Exports</text>
<g id="clust1" class="cluster">
<title>cluster_AppModule</title>
<polygon fill="none" stroke="black" stroke-dasharray="1,5" points="8,-70 8,-195 2634,-195 2634,-70 8,-70"/>
</g>
<g id="clust6" class="cluster">
<title>cluster_AppModule_providers</title>
<polygon fill="none" stroke="black" points="2216,-78 2216,-130 2626,-130 2626,-78 2216,-78"/>
</g>
<g id="clust3" class="cluster">
<title>cluster_AppModule_imports</title>
<polygon fill="none" stroke="black" points="16,-78 16,-130 2208,-130 2208,-78 16,-78"/>
</g>
<!-- AuthModule -->
<g id="node1" class="node">
<title>AuthModule</title>
<polygon fill="#8dd3c7" stroke="black" points="2199.55,-122 2196.55,-126 2175.55,-126 2172.55,-122 2112.45,-122 2112.45,-86 2199.55,-86 2199.55,-122"/>
<text text-anchor="middle" x="2156" y="-99.8" font-family="Times,serif" font-size="14.00">AuthModule</text>
</g>
<!-- AppModule -->
<g id="node15" class="node">
<title>AppModule</title>
<polygon fill="#8dd3c7" stroke="black" points="1452.66,-187 1449.66,-191 1428.66,-191 1425.66,-187 1369.34,-187 1369.34,-151 1452.66,-151 1452.66,-187"/>
<text text-anchor="middle" x="1411" y="-164.8" font-family="Times,serif" font-size="14.00">AppModule</text>
</g>
<!-- AuthModule&#45;&gt;AppModule -->
<g id="edge1" class="edge">
<title>AuthModule&#45;&gt;AppModule</title>
<path fill="none" stroke="black" d="M2156,-122.31C2156,-142.15 2156,-171 2156,-171 2156,-171 1462.92,-171 1462.92,-171"/>
<polygon fill="black" stroke="black" points="1462.92,-167.5 1452.92,-171 1462.92,-174.5 1462.92,-167.5"/>
</g>
<!-- DependenciesModule -->
<g id="node2" class="node">
<title>DependenciesModule</title>
<polygon fill="#8dd3c7" stroke="black" points="2094.06,-122 2091.06,-126 2070.06,-126 2067.06,-122 1955.94,-122 1955.94,-86 2094.06,-86 2094.06,-122"/>
<text text-anchor="middle" x="2025" y="-99.8" font-family="Times,serif" font-size="14.00">DependenciesModule</text>
</g>
<!-- DependenciesModule&#45;&gt;AppModule -->
<g id="edge2" class="edge">
<title>DependenciesModule&#45;&gt;AppModule</title>
<path fill="none" stroke="black" d="M2025,-122.22C2025,-140.83 2025,-167 2025,-167 2025,-167 1462.72,-167 1462.72,-167"/>
<polygon fill="black" stroke="black" points="1462.72,-163.5 1452.72,-167 1462.72,-170.5 1462.72,-163.5"/>
</g>
<!-- DependencySchemaModule -->
<g id="node3" class="node">
<title>DependencySchemaModule</title>
<polygon fill="#8dd3c7" stroke="black" points="1937.83,-122 1934.83,-126 1913.83,-126 1910.83,-122 1764.17,-122 1764.17,-86 1937.83,-86 1937.83,-122"/>
<text text-anchor="middle" x="1851" y="-99.8" font-family="Times,serif" font-size="14.00">DependencySchemaModule</text>
</g>
<!-- DependencySchemaModule&#45;&gt;AppModule -->
<g id="edge3" class="edge">
<title>DependencySchemaModule&#45;&gt;AppModule</title>
<path fill="none" stroke="black" d="M1851,-122.02C1851,-139.37 1851,-163 1851,-163 1851,-163 1462.79,-163 1462.79,-163"/>
<polygon fill="black" stroke="black" points="1462.79,-159.5 1452.79,-163 1462.79,-166.5 1462.79,-159.5"/>
</g>
<!-- EmailModule -->
<g id="node4" class="node">
<title>EmailModule</title>
<polygon fill="#8dd3c7" stroke="black" points="1746.49,-122 1743.49,-126 1722.49,-126 1719.49,-122 1653.51,-122 1653.51,-86 1746.49,-86 1746.49,-122"/>
<text text-anchor="middle" x="1700" y="-99.8" font-family="Times,serif" font-size="14.00">EmailModule</text>
</g>
<!-- EmailModule&#45;&gt;AppModule -->
<g id="edge4" class="edge">
<title>EmailModule&#45;&gt;AppModule</title>
<path fill="none" stroke="black" d="M1700,-122.01C1700,-138.05 1700,-159 1700,-159 1700,-159 1462.71,-159 1462.71,-159"/>
<polygon fill="black" stroke="black" points="1462.71,-155.5 1452.71,-159 1462.71,-162.5 1462.71,-155.5"/>
</g>
<!-- GithubAppModule -->
<g id="node5" class="node">
<title>GithubAppModule</title>
<polygon fill="#8dd3c7" stroke="black" points="1635.05,-122 1632.05,-126 1611.05,-126 1608.05,-122 1512.95,-122 1512.95,-86 1635.05,-86 1635.05,-122"/>
<text text-anchor="middle" x="1574" y="-99.8" font-family="Times,serif" font-size="14.00">GithubAppModule</text>
</g>
<!-- GithubAppModule&#45;&gt;AppModule -->
<g id="edge5" class="edge">
<title>GithubAppModule&#45;&gt;AppModule</title>
<path fill="none" stroke="black" d="M1574,-122.12C1574,-136.78 1574,-155 1574,-155 1574,-155 1462.98,-155 1462.98,-155"/>
<polygon fill="black" stroke="black" points="1462.98,-151.5 1452.98,-155 1462.98,-158.5 1462.98,-151.5"/>
</g>
<!-- GithubAppSchemaModule -->
<g id="node6" class="node">
<title>GithubAppSchemaModule</title>
<polygon fill="#8dd3c7" stroke="black" points="1494.36,-122 1491.36,-126 1470.36,-126 1467.36,-122 1327.64,-122 1327.64,-86 1494.36,-86 1494.36,-122"/>
<text text-anchor="middle" x="1411" y="-99.8" font-family="Times,serif" font-size="14.00">GithubAppSchemaModule</text>
</g>
<!-- GithubAppSchemaModule&#45;&gt;AppModule -->
<g id="edge6" class="edge">
<title>GithubAppSchemaModule&#45;&gt;AppModule</title>
<path fill="none" stroke="black" d="M1411,-122.11C1411,-122.11 1411,-140.99 1411,-140.99"/>
<polygon fill="black" stroke="black" points="1407.5,-140.99 1411,-150.99 1414.5,-140.99 1407.5,-140.99"/>
</g>
<!-- LicenseSchemaModule -->
<g id="node7" class="node">
<title>LicenseSchemaModule</title>
<polygon fill="#8dd3c7" stroke="black" points="1309.9,-122 1306.9,-126 1285.9,-126 1282.9,-122 1162.1,-122 1162.1,-86 1309.9,-86 1309.9,-122"/>
<text text-anchor="middle" x="1236" y="-99.8" font-family="Times,serif" font-size="14.00">LicenseSchemaModule</text>
</g>
<!-- LicenseSchemaModule&#45;&gt;AppModule -->
<g id="edge7" class="edge">
<title>LicenseSchemaModule&#45;&gt;AppModule</title>
<path fill="none" stroke="black" d="M1236,-122.12C1236,-136.78 1236,-155 1236,-155 1236,-155 1359.08,-155 1359.08,-155"/>
<polygon fill="black" stroke="black" points="1359.08,-158.5 1369.08,-155 1359.08,-151.5 1359.08,-158.5"/>
</g>
<!-- LicensesModule -->
<g id="node8" class="node">
<title>LicensesModule</title>
<polygon fill="#8dd3c7" stroke="black" points="1144.03,-122 1141.03,-126 1120.03,-126 1117.03,-122 1035.97,-122 1035.97,-86 1144.03,-86 1144.03,-122"/>
<text text-anchor="middle" x="1090" y="-99.8" font-family="Times,serif" font-size="14.00">LicensesModule</text>
</g>
<!-- LicensesModule&#45;&gt;AppModule -->
<g id="edge8" class="edge">
<title>LicensesModule&#45;&gt;AppModule</title>
<path fill="none" stroke="black" d="M1090,-122.01C1090,-138.05 1090,-159 1090,-159 1090,-159 1359.03,-159 1359.03,-159"/>
<polygon fill="black" stroke="black" points="1359.03,-162.5 1369.03,-159 1359.03,-155.5 1359.03,-162.5"/>
</g>
<!-- OTPSecretSchemaModule -->
<g id="node9" class="node">
<title>OTPSecretSchemaModule</title>
<polygon fill="#8dd3c7" stroke="black" points="1017.79,-122 1014.79,-126 993.79,-126 990.79,-122 852.21,-122 852.21,-86 1017.79,-86 1017.79,-122"/>
<text text-anchor="middle" x="935" y="-99.8" font-family="Times,serif" font-size="14.00">OTPSecretSchemaModule</text>
</g>
<!-- OTPSecretSchemaModule&#45;&gt;AppModule -->
<g id="edge9" class="edge">
<title>OTPSecretSchemaModule&#45;&gt;AppModule</title>
<path fill="none" stroke="black" d="M935,-122.02C935,-139.37 935,-163 935,-163 935,-163 1359.18,-163 1359.18,-163"/>
<polygon fill="black" stroke="black" points="1359.18,-166.5 1369.18,-163 1359.18,-159.5 1359.18,-166.5"/>
</g>
<!-- RepositoryModule -->
<g id="node10" class="node">
<title>RepositoryModule</title>
<polygon fill="#8dd3c7" stroke="black" points="834.49,-122 831.49,-126 810.49,-126 807.49,-122 713.51,-122 713.51,-86 834.49,-86 834.49,-122"/>
<text text-anchor="middle" x="774" y="-99.8" font-family="Times,serif" font-size="14.00">RepositoryModule</text>
</g>
<!-- RepositoryModule&#45;&gt;AppModule -->
<g id="edge10" class="edge">
<title>RepositoryModule&#45;&gt;AppModule</title>
<path fill="none" stroke="black" d="M774,-122.22C774,-140.83 774,-167 774,-167 774,-167 1359.2,-167 1359.2,-167"/>
<polygon fill="black" stroke="black" points="1359.2,-170.5 1369.2,-167 1359.2,-163.5 1359.2,-170.5"/>
</g>
<!-- RepositorySchemaModule -->
<g id="node11" class="node">
<title>RepositorySchemaModule</title>
<polygon fill="#8dd3c7" stroke="black" points="695.8,-122 692.8,-126 671.8,-126 668.8,-122 530.2,-122 530.2,-86 695.8,-86 695.8,-122"/>
<text text-anchor="middle" x="613" y="-99.8" font-family="Times,serif" font-size="14.00">RepositorySchemaModule</text>
</g>
<!-- RepositorySchemaModule&#45;&gt;AppModule -->
<g id="edge11" class="edge">
<title>RepositorySchemaModule&#45;&gt;AppModule</title>
<path fill="none" stroke="black" d="M613,-122.31C613,-142.15 613,-171 613,-171 613,-171 1359.22,-171 1359.22,-171"/>
<polygon fill="black" stroke="black" points="1359.22,-174.5 1369.22,-171 1359.22,-167.5 1359.22,-174.5"/>
</g>
<!-- UserSchemaModule -->
<g id="node12" class="node">
<title>UserSchemaModule</title>
<polygon fill="#8dd3c7" stroke="black" points="512.29,-122 509.29,-126 488.29,-126 485.29,-122 381.71,-122 381.71,-86 512.29,-86 512.29,-122"/>
<text text-anchor="middle" x="447" y="-99.8" font-family="Times,serif" font-size="14.00">UserSchemaModule</text>
</g>
<!-- UserSchemaModule&#45;&gt;AppModule -->
<g id="edge12" class="edge">
<title>UserSchemaModule&#45;&gt;AppModule</title>
<path fill="none" stroke="black" d="M447,-122.28C447,-143.32 447,-175 447,-175 447,-175 1359.27,-175 1359.27,-175"/>
<polygon fill="black" stroke="black" points="1359.27,-178.5 1369.27,-175 1359.27,-171.5 1359.27,-178.5"/>
</g>
<!-- VulnerabilitiesModule -->
<g id="node13" class="node">
<title>VulnerabilitiesModule</title>
<polygon fill="#8dd3c7" stroke="black" points="363.25,-122 360.25,-126 339.25,-126 336.25,-122 220.75,-122 220.75,-86 363.25,-86 363.25,-122"/>
<text text-anchor="middle" x="292" y="-99.8" font-family="Times,serif" font-size="14.00">VulnerabilitiesModule</text>
</g>
<!-- VulnerabilitiesModule&#45;&gt;AppModule -->
<g id="edge13" class="edge">
<title>VulnerabilitiesModule&#45;&gt;AppModule</title>
<path fill="none" stroke="black" d="M292,-122.16C292,-144.35 292,-179 292,-179 292,-179 1359.18,-179 1359.18,-179"/>
<polygon fill="black" stroke="black" points="1359.18,-182.5 1369.18,-179 1359.18,-175.5 1359.18,-182.5"/>
</g>
<!-- VulnerabilitySchemaModule -->
<g id="node14" class="node">
<title>VulnerabilitySchemaModule</title>
<polygon fill="#8dd3c7" stroke="black" points="202.02,-122 199.02,-126 178.02,-126 175.02,-122 23.98,-122 23.98,-86 202.02,-86 202.02,-122"/>
<text text-anchor="middle" x="113" y="-99.8" font-family="Times,serif" font-size="14.00">VulnerabilitySchemaModule</text>
</g>
<!-- VulnerabilitySchemaModule&#45;&gt;AppModule -->
<g id="edge14" class="edge">
<title>VulnerabilitySchemaModule&#45;&gt;AppModule</title>
<path fill="none" stroke="black" d="M113,-122.32C113,-145.66 113,-183 113,-183 113,-183 1359.28,-183 1359.28,-183"/>
<polygon fill="black" stroke="black" points="1359.28,-186.5 1369.28,-183 1359.28,-179.5 1359.28,-186.5"/>
</g>
<!-- AppService -->
<g id="node16" class="node">
<title>AppService</title>
<ellipse fill="#fdb462" stroke="black" cx="2561" cy="-104" rx="56.74" ry="18"/>
<text text-anchor="middle" x="2561" y="-99.8" font-family="Times,serif" font-size="14.00">AppService</text>
</g>
<!-- AppService&#45;&gt;AppModule -->
<g id="edge15" class="edge">
<title>AppService&#45;&gt;AppModule</title>
<path fill="none" stroke="black" d="M2561,-122.32C2561,-145.66 2561,-183 2561,-183 2561,-183 1462.95,-183 1462.95,-183"/>
<polygon fill="black" stroke="black" points="1462.95,-179.5 1452.95,-183 1462.95,-186.5 1462.95,-179.5"/>
</g>
<!-- AuthService -->
<g id="node17" class="node">
<title>AuthService</title>
<ellipse fill="#fdb462" stroke="black" cx="2427" cy="-104" rx="59.11" ry="18"/>
<text text-anchor="middle" x="2427" y="-99.8" font-family="Times,serif" font-size="14.00">AuthService</text>
</g>
<!-- AuthService&#45;&gt;AppModule -->
<g id="edge16" class="edge">
<title>AuthService&#45;&gt;AppModule</title>
<path fill="none" stroke="black" d="M2427,-122.16C2427,-144.35 2427,-179 2427,-179 2427,-179 1462.72,-179 1462.72,-179"/>
<polygon fill="black" stroke="black" points="1462.72,-175.5 1452.72,-179 1462.72,-182.5 1462.72,-175.5"/>
</g>
<!-- EmailService -->
<g id="node18" class="node">
<title>EmailService</title>
<ellipse fill="#fdb462" stroke="black" cx="2287" cy="-104" rx="63.12" ry="18"/>
<text text-anchor="middle" x="2287" y="-99.8" font-family="Times,serif" font-size="14.00">EmailService</text>
</g>
<!-- EmailService&#45;&gt;AppModule -->
<g id="edge17" class="edge">
<title>EmailService&#45;&gt;AppModule</title>
<path fill="none" stroke="black" d="M2287,-122.28C2287,-143.32 2287,-175 2287,-175 2287,-175 1462.66,-175 1462.66,-175"/>
<polygon fill="black" stroke="black" points="1462.66,-171.5 1452.66,-175 1462.66,-178.5 1462.66,-171.5"/>
</g>
</g>
</svg>
