<?xml version="1.0" encoding="UTF-8" standalone="no"?>
<!DOCTYPE svg PUBLIC "-//W3C//DTD SVG 1.1//EN"
 "http://www.w3.org/Graphics/SVG/1.1/DTD/svg11.dtd">
<!-- Generated by graphviz version 2.47.0 (20210316.0004)
 -->
<!-- Title: dependencies Pages: 1 -->
<svg width="504pt" height="284pt"
 viewBox="0.00 0.00 504.00 284.00" xmlns="http://www.w3.org/2000/svg" xmlns:xlink="http://www.w3.org/1999/xlink">
<g id="graph0" class="graph" transform="scale(1 1) rotate(0) translate(4 280)">
<title>dependencies</title>
<polygon fill="white" stroke="transparent" points="-4,4 -4,-280 500,-280 500,4 -4,4"/>
<text text-anchor="start" x="227.01" y="-42.4" font-family="Times-12" font-weight="bold" font-size="14.00">Legend</text>
<polygon fill="#ffffb3" stroke="transparent" points="14,-10 14,-30 34,-30 34,-10 14,-10"/>
<text text-anchor="start" x="37.63" y="-15.4" font-family="Times-12" font-size="14.00"> &#160;Declarations</text>
<polygon fill="#8dd3c7" stroke="transparent" points="127,-10 127,-30 147,-30 147,-10 127,-10"/>
<text text-anchor="start" x="150.73" y="-15.4" font-family="Times-12" font-size="14.00"> &#160;Module</text>
<polygon fill="#80b1d3" stroke="transparent" points="213,-10 213,-30 233,-30 233,-10 213,-10"/>
<text text-anchor="start" x="236.78" y="-15.4" font-family="Times-12" font-size="14.00"> &#160;Bootstrap</text>
<polygon fill="#fdb462" stroke="transparent" points="310,-10 310,-30 330,-30 330,-10 310,-10"/>
<text text-anchor="start" x="333.67" y="-15.4" font-family="Times-12" font-size="14.00"> &#160;Providers</text>
<polygon fill="#fb8072" stroke="transparent" points="406,-10 406,-30 426,-30 426,-10 406,-10"/>
<text text-anchor="start" x="429.73" y="-15.4" font-family="Times-12" font-size="14.00"> &#160;Exports</text>
<g id="clust1" class="cluster">
<title>cluster_DependenciesModule</title>
<polygon fill="none" stroke="black" stroke-dasharray="1,5" points="39,-70 39,-268 457,-268 457,-70 39,-70"/>
</g>
<g id="clust3" class="cluster">
<title>cluster_DependenciesModule_imports</title>
<polygon fill="none" stroke="black" points="259,-78 259,-130 449,-130 449,-78 259,-78"/>
</g>
<g id="clust4" class="cluster">
<title>cluster_DependenciesModule_exports</title>
<polygon fill="none" stroke="black" points="173,-208 173,-260 329,-260 329,-208 173,-208"/>
</g>
<g id="clust6" class="cluster">
<title>cluster_DependenciesModule_providers</title>
<polygon fill="none" stroke="black" points="47,-78 47,-130 251,-130 251,-78 47,-78"/>
</g>
<!-- DependencySchemaModule -->
<g id="node1" class="node">
<title>DependencySchemaModule</title>
<polygon fill="#8dd3c7" stroke="black" points="440.83,-122 437.83,-126 416.83,-126 413.83,-122 267.17,-122 267.17,-86 440.83,-86 440.83,-122"/>
<text text-anchor="middle" x="354" y="-99.8" font-family="Times,serif" font-size="14.00">DependencySchemaModule</text>
</g>
<!-- DependenciesModule -->
<g id="node2" class="node">
<title>DependenciesModule</title>
<polygon fill="#8dd3c7" stroke="black" points="320.06,-187 317.06,-191 296.06,-191 293.06,-187 181.94,-187 181.94,-151 320.06,-151 320.06,-187"/>
<text text-anchor="middle" x="251" y="-164.8" font-family="Times,serif" font-size="14.00">DependenciesModule</text>
</g>
<!-- DependencySchemaModule&#45;&gt;DependenciesModule -->
<g id="edge1" class="edge">
<title>DependencySchemaModule&#45;&gt;DependenciesModule</title>
<path fill="none" stroke="black" d="M293.56,-122.11C293.56,-122.11 293.56,-140.99 293.56,-140.99"/>
<polygon fill="black" stroke="black" points="290.06,-140.99 293.56,-150.99 297.06,-140.99 290.06,-140.99"/>
</g>
<!-- DependenciesService  -->
<g id="node3" class="node">
<title>DependenciesService </title>
<polygon fill="#fb8072" stroke="black" points="320.99,-252 181.01,-252 181.01,-216 320.99,-216 320.99,-252"/>
<text text-anchor="middle" x="251" y="-229.8" font-family="Times,serif" font-size="14.00">DependenciesService </text>
</g>
<!-- DependenciesModule&#45;&gt;DependenciesService  -->
<g id="edge2" class="edge">
<title>DependenciesModule&#45;&gt;DependenciesService </title>
<path fill="none" stroke="black" stroke-dasharray="5,2" d="M251,-187.11C251,-187.11 251,-205.99 251,-205.99"/>
<polygon fill="black" stroke="black" points="247.5,-205.99 251,-215.99 254.5,-205.99 247.5,-205.99"/>
</g>
<!-- DependenciesService -->
<g id="node4" class="node">
<title>DependenciesService</title>
<ellipse fill="#fdb462" stroke="black" cx="149" cy="-104" rx="94.3" ry="18"/>
<text text-anchor="middle" x="149" y="-99.8" font-family="Times,serif" font-size="14.00">DependenciesService</text>
</g>
<!-- DependenciesService&#45;&gt;DependenciesModule -->
<g id="edge3" class="edge">
<title>DependenciesService&#45;&gt;DependenciesModule</title>
<path fill="none" stroke="black" d="M212.56,-117.47C212.56,-117.47 212.56,-140.86 212.56,-140.86"/>
<polygon fill="black" stroke="black" points="209.06,-140.86 212.56,-150.86 216.06,-140.86 209.06,-140.86"/>
</g>
</g>
</svg>
