<?xml version="1.0" encoding="UTF-8" standalone="no"?>
<!DOCTYPE svg PUBLIC "-//W3C//DTD SVG 1.1//EN"
 "http://www.w3.org/Graphics/SVG/1.1/DTD/svg11.dtd">
<!-- Generated by graphviz version 2.47.0 (20210316.0004)
 -->
<!-- Title: dependencies Pages: 1 -->
<svg width="1293pt" height="284pt"
 viewBox="0.00 0.00 1293.00 284.00" xmlns="http://www.w3.org/2000/svg" xmlns:xlink="http://www.w3.org/1999/xlink">
<g id="graph0" class="graph" transform="scale(1 1) rotate(0) translate(4 280)">
<title>dependencies</title>
<polygon fill="white" stroke="transparent" points="-4,4 -4,-280 1289,-280 1289,4 -4,4"/>
<text text-anchor="start" x="621.51" y="-42.4" font-family="Times-12" font-weight="bold" font-size="14.00">Legend</text>
<polygon fill="#ffffb3" stroke="transparent" points="408.5,-10 408.5,-30 428.5,-30 428.5,-10 408.5,-10"/>
<text text-anchor="start" x="432.13" y="-15.4" font-family="Times-12" font-size="14.00"> &#160;Declarations</text>
<polygon fill="#8dd3c7" stroke="transparent" points="521.5,-10 521.5,-30 541.5,-30 541.5,-10 521.5,-10"/>
<text text-anchor="start" x="545.23" y="-15.4" font-family="Times-12" font-size="14.00"> &#160;Module</text>
<polygon fill="#80b1d3" stroke="transparent" points="607.5,-10 607.5,-30 627.5,-30 627.5,-10 607.5,-10"/>
<text text-anchor="start" x="631.28" y="-15.4" font-family="Times-12" font-size="14.00"> &#160;Bootstrap</text>
<polygon fill="#fdb462" stroke="transparent" points="704.5,-10 704.5,-30 724.5,-30 724.5,-10 704.5,-10"/>
<text text-anchor="start" x="728.17" y="-15.4" font-family="Times-12" font-size="14.00"> &#160;Providers</text>
<polygon fill="#fb8072" stroke="transparent" points="800.5,-10 800.5,-30 820.5,-30 820.5,-10 800.5,-10"/>
<text text-anchor="start" x="824.23" y="-15.4" font-family="Times-12" font-size="14.00"> &#160;Exports</text>
<g id="clust1" class="cluster">
<title>cluster_RepositoryModule</title>
<polygon fill="none" stroke="black" stroke-dasharray="1,5" points="8,-70 8,-268 1277,-268 1277,-70 8,-70"/>
</g>
<g id="clust4" class="cluster">
<title>cluster_RepositoryModule_exports</title>
<polygon fill="none" stroke="black" points="558,-208 558,-260 696,-260 696,-208 558,-208"/>
</g>
<g id="clust3" class="cluster">
<title>cluster_RepositoryModule_imports</title>
<polygon fill="none" stroke="black" points="204,-78 204,-130 1269,-130 1269,-78 204,-78"/>
</g>
<g id="clust6" class="cluster">
<title>cluster_RepositoryModule_providers</title>
<polygon fill="none" stroke="black" points="16,-78 16,-130 196,-130 196,-78 16,-78"/>
</g>
<!-- DependenciesModule -->
<g id="node1" class="node">
<title>DependenciesModule</title>
<polygon fill="#8dd3c7" stroke="black" points="1261.06,-122 1258.06,-126 1237.06,-126 1234.06,-122 1122.94,-122 1122.94,-86 1261.06,-86 1261.06,-122"/>
<text text-anchor="middle" x="1192" y="-99.8" font-family="Times,serif" font-size="14.00">DependenciesModule</text>
</g>
<!-- RepositoryModule -->
<g id="node7" class="node">
<title>RepositoryModule</title>
<polygon fill="#8dd3c7" stroke="black" points="687.49,-187 684.49,-191 663.49,-191 660.49,-187 566.51,-187 566.51,-151 687.49,-151 687.49,-187"/>
<text text-anchor="middle" x="627" y="-164.8" font-family="Times,serif" font-size="14.00">RepositoryModule</text>
</g>
<!-- DependenciesModule&#45;&gt;RepositoryModule -->
<g id="edge1" class="edge">
<title>DependenciesModule&#45;&gt;RepositoryModule</title>
<path fill="none" stroke="black" d="M1192,-122.29C1192,-144.21 1192,-178 1192,-178 1192,-178 697.73,-178 697.73,-178"/>
<polygon fill="black" stroke="black" points="697.73,-174.5 687.73,-178 697.73,-181.5 697.73,-174.5"/>
</g>
<!-- DependencyRepositorySchemaModule -->
<g id="node2" class="node">
<title>DependencyRepositorySchemaModule</title>
<polygon fill="#8dd3c7" stroke="black" points="1104.77,-122 1101.77,-126 1080.77,-126 1077.77,-122 869.23,-122 869.23,-86 1104.77,-86 1104.77,-122"/>
<text text-anchor="middle" x="987" y="-99.8" font-family="Times,serif" font-size="14.00">DependencyRepositorySchemaModule</text>
</g>
<!-- DependencyRepositorySchemaModule&#45;&gt;RepositoryModule -->
<g id="edge2" class="edge">
<title>DependencyRepositorySchemaModule&#45;&gt;RepositoryModule</title>
<path fill="none" stroke="black" d="M987,-122.11C987,-141.34 987,-169 987,-169 987,-169 697.66,-169 697.66,-169"/>
<polygon fill="black" stroke="black" points="697.66,-165.5 687.66,-169 697.66,-172.5 697.66,-165.5"/>
</g>
<!-- GithubAppModule -->
<g id="node3" class="node">
<title>GithubAppModule</title>
<polygon fill="#8dd3c7" stroke="black" points="851.05,-122 848.05,-126 827.05,-126 824.05,-122 728.95,-122 728.95,-86 851.05,-86 851.05,-122"/>
<text text-anchor="middle" x="790" y="-99.8" font-family="Times,serif" font-size="14.00">GithubAppModule</text>
</g>
<!-- GithubAppModule&#45;&gt;RepositoryModule -->
<g id="edge3" class="edge">
<title>GithubAppModule&#45;&gt;RepositoryModule</title>
<path fill="none" stroke="black" d="M790,-122.03C790,-138.4 790,-160 790,-160 790,-160 697.7,-160 697.7,-160"/>
<polygon fill="black" stroke="black" points="697.7,-156.5 687.7,-160 697.7,-163.5 697.7,-156.5"/>
</g>
<!-- GithubAppSchemaModule -->
<g id="node4" class="node">
<title>GithubAppSchemaModule</title>
<polygon fill="#8dd3c7" stroke="black" points="710.36,-122 707.36,-126 686.36,-126 683.36,-122 543.64,-122 543.64,-86 710.36,-86 710.36,-122"/>
<text text-anchor="middle" x="627" y="-99.8" font-family="Times,serif" font-size="14.00">GithubAppSchemaModule</text>
</g>
<!-- GithubAppSchemaModule&#45;&gt;RepositoryModule -->
<g id="edge4" class="edge">
<title>GithubAppSchemaModule&#45;&gt;RepositoryModule</title>
<path fill="none" stroke="black" d="M627,-122.11C627,-122.11 627,-140.99 627,-140.99"/>
<polygon fill="black" stroke="black" points="623.5,-140.99 627,-150.99 630.5,-140.99 623.5,-140.99"/>
</g>
<!-- RepositorySchemaModule -->
<g id="node5" class="node">
<title>RepositorySchemaModule</title>
<polygon fill="#8dd3c7" stroke="black" points="525.8,-122 522.8,-126 501.8,-126 498.8,-122 360.2,-122 360.2,-86 525.8,-86 525.8,-122"/>
<text text-anchor="middle" x="443" y="-99.8" font-family="Times,serif" font-size="14.00">RepositorySchemaModule</text>
</g>
<!-- RepositorySchemaModule&#45;&gt;RepositoryModule -->
<g id="edge5" class="edge">
<title>RepositorySchemaModule&#45;&gt;RepositoryModule</title>
<path fill="none" stroke="black" d="M443,-122.03C443,-138.4 443,-160 443,-160 443,-160 556.5,-160 556.5,-160"/>
<polygon fill="black" stroke="black" points="556.5,-163.5 566.5,-160 556.5,-156.5 556.5,-163.5"/>
</g>
<!-- UserSchemaModule -->
<g id="node6" class="node">
<title>UserSchemaModule</title>
<polygon fill="#8dd3c7" stroke="black" points="342.29,-122 339.29,-126 318.29,-126 315.29,-122 211.71,-122 211.71,-86 342.29,-86 342.29,-122"/>
<text text-anchor="middle" x="277" y="-99.8" font-family="Times,serif" font-size="14.00">UserSchemaModule</text>
</g>
<!-- UserSchemaModule&#45;&gt;RepositoryModule -->
<g id="edge6" class="edge">
<title>UserSchemaModule&#45;&gt;RepositoryModule</title>
<path fill="none" stroke="black" d="M277,-122.11C277,-141.34 277,-169 277,-169 277,-169 556.43,-169 556.43,-169"/>
<polygon fill="black" stroke="black" points="556.43,-172.5 566.43,-169 556.43,-165.5 556.43,-172.5"/>
</g>
<!-- RepositoryService  -->
<g id="node8" class="node">
<title>RepositoryService </title>
<polygon fill="#fb8072" stroke="black" points="688.42,-252 565.58,-252 565.58,-216 688.42,-216 688.42,-252"/>
<text text-anchor="middle" x="627" y="-229.8" font-family="Times,serif" font-size="14.00">RepositoryService </text>
</g>
<!-- RepositoryModule&#45;&gt;RepositoryService  -->
<g id="edge7" class="edge">
<title>RepositoryModule&#45;&gt;RepositoryService </title>
<path fill="none" stroke="black" stroke-dasharray="5,2" d="M627,-187.11C627,-187.11 627,-205.99 627,-205.99"/>
<polygon fill="black" stroke="black" points="623.5,-205.99 627,-215.99 630.5,-205.99 623.5,-205.99"/>
</g>
<!-- RepositoryService -->
<g id="node9" class="node">
<title>RepositoryService</title>
<ellipse fill="#fdb462" stroke="black" cx="106" cy="-104" rx="82.24" ry="18"/>
<text text-anchor="middle" x="106" y="-99.8" font-family="Times,serif" font-size="14.00">RepositoryService</text>
</g>
<!-- RepositoryService&#45;&gt;RepositoryModule -->
<g id="edge8" class="edge">
<title>RepositoryService&#45;&gt;RepositoryModule</title>
<path fill="none" stroke="black" d="M106,-122.29C106,-144.21 106,-178 106,-178 106,-178 556.47,-178 556.47,-178"/>
<polygon fill="black" stroke="black" points="556.47,-181.5 566.47,-178 556.47,-174.5 556.47,-181.5"/>
</g>
</g>
</svg>
