<?xml version="1.0" encoding="UTF-8" standalone="no"?>
<!DOCTYPE svg PUBLIC "-//W3C//DTD SVG 1.1//EN"
 "http://www.w3.org/Graphics/SVG/1.1/DTD/svg11.dtd">
<!-- Generated by graphviz version 2.47.0 (20210316.0004)
 -->
<!-- Title: dependencies Pages: 1 -->
<svg width="744pt" height="284pt"
 viewBox="0.00 0.00 744.00 284.00" xmlns="http://www.w3.org/2000/svg" xmlns:xlink="http://www.w3.org/1999/xlink">
<g id="graph0" class="graph" transform="scale(1 1) rotate(0) translate(4 280)">
<title>dependencies</title>
<polygon fill="white" stroke="transparent" points="-4,4 -4,-280 740,-280 740,4 -4,4"/>
<text text-anchor="start" x="347.01" y="-42.4" font-family="Times-12" font-weight="bold" font-size="14.00">Legend</text>
<polygon fill="#ffffb3" stroke="transparent" points="134,-10 134,-30 154,-30 154,-10 134,-10"/>
<text text-anchor="start" x="157.63" y="-15.4" font-family="Times-12" font-size="14.00"> &#160;Declarations</text>
<polygon fill="#8dd3c7" stroke="transparent" points="247,-10 247,-30 267,-30 267,-10 247,-10"/>
<text text-anchor="start" x="270.73" y="-15.4" font-family="Times-12" font-size="14.00"> &#160;Module</text>
<polygon fill="#80b1d3" stroke="transparent" points="333,-10 333,-30 353,-30 353,-10 333,-10"/>
<text text-anchor="start" x="356.78" y="-15.4" font-family="Times-12" font-size="14.00"> &#160;Bootstrap</text>
<polygon fill="#fdb462" stroke="transparent" points="430,-10 430,-30 450,-30 450,-10 430,-10"/>
<text text-anchor="start" x="453.67" y="-15.4" font-family="Times-12" font-size="14.00"> &#160;Providers</text>
<polygon fill="#fb8072" stroke="transparent" points="526,-10 526,-30 546,-30 546,-10 526,-10"/>
<text text-anchor="start" x="549.73" y="-15.4" font-family="Times-12" font-size="14.00"> &#160;Exports</text>
<g id="clust1" class="cluster">
<title>cluster_GithubAppModule</title>
<polygon fill="none" stroke="black" stroke-dasharray="1,5" points="8,-70 8,-268 728,-268 728,-70 8,-70"/>
</g>
<g id="clust3" class="cluster">
<title>cluster_GithubAppModule_imports</title>
<polygon fill="none" stroke="black" points="206,-78 206,-130 720,-130 720,-78 206,-78"/>
</g>
<g id="clust4" class="cluster">
<title>cluster_GithubAppModule_exports</title>
<polygon fill="none" stroke="black" points="292,-208 292,-260 432,-260 432,-208 292,-208"/>
</g>
<g id="clust6" class="cluster">
<title>cluster_GithubAppModule_providers</title>
<polygon fill="none" stroke="black" points="16,-78 16,-130 198,-130 198,-78 16,-78"/>
</g>
<!-- GithubAppSchemaModule -->
<g id="node1" class="node">
<title>GithubAppSchemaModule</title>
<polygon fill="#8dd3c7" stroke="black" points="712.36,-122 709.36,-126 688.36,-126 685.36,-122 545.64,-122 545.64,-86 712.36,-86 712.36,-122"/>
<text text-anchor="middle" x="629" y="-99.8" font-family="Times,serif" font-size="14.00">GithubAppSchemaModule</text>
</g>
<!-- GithubAppModule -->
<g id="node4" class="node">
<title>GithubAppModule</title>
<polygon fill="#8dd3c7" stroke="black" points="423.05,-187 420.05,-191 399.05,-191 396.05,-187 300.95,-187 300.95,-151 423.05,-151 423.05,-187"/>
<text text-anchor="middle" x="362" y="-164.8" font-family="Times,serif" font-size="14.00">GithubAppModule</text>
</g>
<!-- GithubAppSchemaModule&#45;&gt;GithubAppModule -->
<g id="edge1" class="edge">
<title>GithubAppSchemaModule&#45;&gt;GithubAppModule</title>
<path fill="none" stroke="black" d="M629,-122.11C629,-141.34 629,-169 629,-169 629,-169 433.26,-169 433.26,-169"/>
<polygon fill="black" stroke="black" points="433.26,-165.5 423.26,-169 433.26,-172.5 433.26,-165.5"/>
</g>
<!-- RepositorySchemaModule -->
<g id="node2" class="node">
<title>RepositorySchemaModule</title>
<polygon fill="#8dd3c7" stroke="black" points="527.8,-122 524.8,-126 503.8,-126 500.8,-122 362.2,-122 362.2,-86 527.8,-86 527.8,-122"/>
<text text-anchor="middle" x="445" y="-99.8" font-family="Times,serif" font-size="14.00">RepositorySchemaModule</text>
</g>
<!-- RepositorySchemaModule&#45;&gt;GithubAppModule -->
<g id="edge2" class="edge">
<title>RepositorySchemaModule&#45;&gt;GithubAppModule</title>
<path fill="none" stroke="black" d="M392.81,-122.11C392.81,-122.11 392.81,-140.99 392.81,-140.99"/>
<polygon fill="black" stroke="black" points="389.31,-140.99 392.81,-150.99 396.31,-140.99 389.31,-140.99"/>
</g>
<!-- UserSchemaModule -->
<g id="node3" class="node">
<title>UserSchemaModule</title>
<polygon fill="#8dd3c7" stroke="black" points="344.29,-122 341.29,-126 320.29,-126 317.29,-122 213.71,-122 213.71,-86 344.29,-86 344.29,-122"/>
<text text-anchor="middle" x="279" y="-99.8" font-family="Times,serif" font-size="14.00">UserSchemaModule</text>
</g>
<!-- UserSchemaModule&#45;&gt;GithubAppModule -->
<g id="edge3" class="edge">
<title>UserSchemaModule&#45;&gt;GithubAppModule</title>
<path fill="none" stroke="black" d="M322.44,-122.11C322.44,-122.11 322.44,-140.99 322.44,-140.99"/>
<polygon fill="black" stroke="black" points="318.94,-140.99 322.44,-150.99 325.94,-140.99 318.94,-140.99"/>
</g>
<!-- GithubAppService  -->
<g id="node5" class="node">
<title>GithubAppService </title>
<polygon fill="#fb8072" stroke="black" points="424.47,-252 299.53,-252 299.53,-216 424.47,-216 424.47,-252"/>
<text text-anchor="middle" x="362" y="-229.8" font-family="Times,serif" font-size="14.00">GithubAppService </text>
</g>
<!-- GithubAppModule&#45;&gt;GithubAppService  -->
<g id="edge4" class="edge">
<title>GithubAppModule&#45;&gt;GithubAppService </title>
<path fill="none" stroke="black" stroke-dasharray="5,2" d="M362,-187.11C362,-187.11 362,-205.99 362,-205.99"/>
<polygon fill="black" stroke="black" points="358.5,-205.99 362,-215.99 365.5,-205.99 358.5,-205.99"/>
</g>
<!-- GithubAppService -->
<g id="node6" class="node">
<title>GithubAppService</title>
<ellipse fill="#fdb462" stroke="black" cx="107" cy="-104" rx="83.39" ry="18"/>
<text text-anchor="middle" x="107" y="-99.8" font-family="Times,serif" font-size="14.00">GithubAppService</text>
</g>
<!-- GithubAppService&#45;&gt;GithubAppModule -->
<g id="edge5" class="edge">
<title>GithubAppService&#45;&gt;GithubAppModule</title>
<path fill="none" stroke="black" d="M107,-122.11C107,-141.34 107,-169 107,-169 107,-169 290.92,-169 290.92,-169"/>
<polygon fill="black" stroke="black" points="290.92,-172.5 300.92,-169 290.92,-165.5 290.92,-172.5"/>
</g>
</g>
</svg>
