<?xml version="1.0" encoding="UTF-8" standalone="no"?>
<!DOCTYPE svg PUBLIC "-//W3C//DTD SVG 1.1//EN"
 "http://www.w3.org/Graphics/SVG/1.1/DTD/svg11.dtd">
<!-- Generated by graphviz version 2.47.0 (20210316.0004)
 -->
<!-- Title: dependencies Pages: 1 -->
<svg width="520pt" height="211pt"
 viewBox="0.00 0.00 520.00 211.00" xmlns="http://www.w3.org/2000/svg" xmlns:xlink="http://www.w3.org/1999/xlink">
<g id="graph0" class="graph" transform="scale(1 1) rotate(0) translate(4 207)">
<title>dependencies</title>
<polygon fill="white" stroke="transparent" points="-4,4 -4,-207 516,-207 516,4 -4,4"/>
<text text-anchor="start" x="235.01" y="-42.4" font-family="Times-12" font-weight="bold" font-size="14.00">Legend</text>
<polygon fill="#ffffb3" stroke="transparent" points="22,-10 22,-30 42,-30 42,-10 22,-10"/>
<text text-anchor="start" x="45.63" y="-15.4" font-family="Times-12" font-size="14.00"> &#160;Declarations</text>
<polygon fill="#8dd3c7" stroke="transparent" points="135,-10 135,-30 155,-30 155,-10 135,-10"/>
<text text-anchor="start" x="158.73" y="-15.4" font-family="Times-12" font-size="14.00"> &#160;Module</text>
<polygon fill="#80b1d3" stroke="transparent" points="221,-10 221,-30 241,-30 241,-10 221,-10"/>
<text text-anchor="start" x="244.78" y="-15.4" font-family="Times-12" font-size="14.00"> &#160;Bootstrap</text>
<polygon fill="#fdb462" stroke="transparent" points="318,-10 318,-30 338,-30 338,-10 318,-10"/>
<text text-anchor="start" x="341.67" y="-15.4" font-family="Times-12" font-size="14.00"> &#160;Providers</text>
<polygon fill="#fb8072" stroke="transparent" points="414,-10 414,-30 434,-30 434,-10 414,-10"/>
<text text-anchor="start" x="437.73" y="-15.4" font-family="Times-12" font-size="14.00"> &#160;Exports</text>
<g id="clust1" class="cluster">
<title>cluster_EmailModule</title>
<polygon fill="none" stroke="black" stroke-dasharray="1,5" points="8,-70 8,-195 504,-195 504,-70 8,-70"/>
</g>
<g id="clust3" class="cluster">
<title>cluster_EmailModule_imports</title>
<polygon fill="none" stroke="black" points="166,-78 166,-130 496,-130 496,-78 166,-78"/>
</g>
<g id="clust6" class="cluster">
<title>cluster_EmailModule_providers</title>
<polygon fill="none" stroke="black" points="16,-78 16,-130 158,-130 158,-78 16,-78"/>
</g>
<!-- OTPSecretSchemaModule -->
<g id="node1" class="node">
<title>OTPSecretSchemaModule</title>
<polygon fill="#8dd3c7" stroke="black" points="487.79,-122 484.79,-126 463.79,-126 460.79,-122 322.21,-122 322.21,-86 487.79,-86 487.79,-122"/>
<text text-anchor="middle" x="405" y="-99.8" font-family="Times,serif" font-size="14.00">OTPSecretSchemaModule</text>
</g>
<!-- EmailModule -->
<g id="node3" class="node">
<title>EmailModule</title>
<polygon fill="#8dd3c7" stroke="black" points="285.49,-187 282.49,-191 261.49,-191 258.49,-187 192.51,-187 192.51,-151 285.49,-151 285.49,-187"/>
<text text-anchor="middle" x="239" y="-164.8" font-family="Times,serif" font-size="14.00">EmailModule</text>
</g>
<!-- OTPSecretSchemaModule&#45;&gt;EmailModule -->
<g id="edge1" class="edge">
<title>OTPSecretSchemaModule&#45;&gt;EmailModule</title>
<path fill="none" stroke="black" d="M405,-122.11C405,-141.34 405,-169 405,-169 405,-169 295.68,-169 295.68,-169"/>
<polygon fill="black" stroke="black" points="295.68,-165.5 285.68,-169 295.68,-172.5 295.68,-165.5"/>
</g>
<!-- UserSchemaModule -->
<g id="node2" class="node">
<title>UserSchemaModule</title>
<polygon fill="#8dd3c7" stroke="black" points="304.29,-122 301.29,-126 280.29,-126 277.29,-122 173.71,-122 173.71,-86 304.29,-86 304.29,-122"/>
<text text-anchor="middle" x="239" y="-99.8" font-family="Times,serif" font-size="14.00">UserSchemaModule</text>
</g>
<!-- UserSchemaModule&#45;&gt;EmailModule -->
<g id="edge2" class="edge">
<title>UserSchemaModule&#45;&gt;EmailModule</title>
<path fill="none" stroke="black" d="M239,-122.11C239,-122.11 239,-140.99 239,-140.99"/>
<polygon fill="black" stroke="black" points="235.5,-140.99 239,-150.99 242.5,-140.99 235.5,-140.99"/>
</g>
<!-- EmailService -->
<g id="node4" class="node">
<title>EmailService</title>
<ellipse fill="#fdb462" stroke="black" cx="87" cy="-104" rx="63.12" ry="18"/>
<text text-anchor="middle" x="87" y="-99.8" font-family="Times,serif" font-size="14.00">EmailService</text>
</g>
<!-- EmailService&#45;&gt;EmailModule -->
<g id="edge3" class="edge">
<title>EmailService&#45;&gt;EmailModule</title>
<path fill="none" stroke="black" d="M87,-122.11C87,-141.34 87,-169 87,-169 87,-169 182.15,-169 182.15,-169"/>
<polygon fill="black" stroke="black" points="182.15,-172.5 192.15,-169 182.15,-165.5 182.15,-172.5"/>
</g>
</g>
</svg>
