<?xml version="1.0" encoding="UTF-8" standalone="no"?>
<!DOCTYPE svg PUBLIC "-//W3C//DTD SVG 1.1//EN"
 "http://www.w3.org/Graphics/SVG/1.1/DTD/svg11.dtd">
<!-- Generated by graphviz version 2.47.0 (20210316.0004)
 -->
<!-- Title: dependencies Pages: 1 -->
<svg width="3540pt" height="363pt"
 viewBox="0.00 0.00 3540.00 363.00" xmlns="http://www.w3.org/2000/svg" xmlns:xlink="http://www.w3.org/1999/xlink">
<g id="graph0" class="graph" transform="scale(1 1) rotate(0) translate(4 359)">
<title>dependencies</title>
<polygon fill="white" stroke="transparent" points="-4,4 -4,-359 3536,-359 3536,4 -4,4"/>
<text text-anchor="start" x="1745.01" y="-42.4" font-family="Times-12" font-weight="bold" font-size="14.00">Legend</text>
<polygon fill="#ffffb3" stroke="transparent" points="1532,-10 1532,-30 1552,-30 1552,-10 1532,-10"/>
<text text-anchor="start" x="1555.63" y="-15.4" font-family="Times-12" font-size="14.00"> &#160;Declarations</text>
<polygon fill="#8dd3c7" stroke="transparent" points="1645,-10 1645,-30 1665,-30 1665,-10 1645,-10"/>
<text text-anchor="start" x="1668.73" y="-15.4" font-family="Times-12" font-size="14.00"> &#160;Module</text>
<polygon fill="#80b1d3" stroke="transparent" points="1731,-10 1731,-30 1751,-30 1751,-10 1731,-10"/>
<text text-anchor="start" x="1754.78" y="-15.4" font-family="Times-12" font-size="14.00"> &#160;Bootstrap</text>
<polygon fill="#fdb462" stroke="transparent" points="1828,-10 1828,-30 1848,-30 1848,-10 1828,-10"/>
<text text-anchor="start" x="1851.67" y="-15.4" font-family="Times-12" font-size="14.00"> &#160;Providers</text>
<polygon fill="#fb8072" stroke="transparent" points="1924,-10 1924,-30 1944,-30 1944,-10 1924,-10"/>
<text text-anchor="start" x="1947.73" y="-15.4" font-family="Times-12" font-size="14.00"> &#160;Exports</text>
<g id="clust1" class="cluster">
<title>cluster_AppModule</title>
<polygon fill="none" stroke="black" stroke-dasharray="1,5" points="1023,-70 1023,-347 2710,-347 2710,-70 1023,-70"/>
</g>
<g id="clust3" class="cluster">
<title>cluster_AppModule_imports</title>
<polygon fill="none" stroke="black" points="1449,-78 1449,-282 2702,-282 2702,-78 1449,-78"/>
</g>
<g id="clust6" class="cluster">
<title>cluster_AppModule_providers</title>
<polygon fill="none" stroke="black" points="1031,-78 1031,-130 1441,-130 1441,-78 1031,-78"/>
</g>
<g id="clust7" class="cluster">
<title>cluster_AuthModule</title>
<polygon fill="none" stroke="black" stroke-dasharray="1,5" points="618,-146 618,-214 1015,-214 1015,-146 618,-146"/>
</g>
<g id="clust12" class="cluster">
<title>cluster_AuthModule_providers</title>
<polygon fill="none" stroke="black" points="626,-154 626,-206 1007,-206 1007,-154 626,-154"/>
</g>
<g id="clust13" class="cluster">
<title>cluster_DependenciesModule</title>
<polygon fill="none" stroke="black" stroke-dasharray="1,5" points="2718,-70 2718,-138 3102,-138 3102,-70 2718,-70"/>
</g>
<g id="clust16" class="cluster">
<title>cluster_DependenciesModule_exports</title>
<polygon fill="none" stroke="black" points="2938,-78 2938,-130 3094,-130 3094,-78 2938,-78"/>
</g>
<g id="clust18" class="cluster">
<title>cluster_DependenciesModule_providers</title>
<polygon fill="none" stroke="black" points="2726,-78 2726,-130 2930,-130 2930,-78 2726,-78"/>
</g>
<g id="clust37" class="cluster">
<title>cluster_GithubAppModule</title>
<polygon fill="none" stroke="black" stroke-dasharray="1,5" points="2718,-222 2718,-290 3064,-290 3064,-222 2718,-222"/>
</g>
<g id="clust40" class="cluster">
<title>cluster_GithubAppModule_exports</title>
<polygon fill="none" stroke="black" points="2916,-230 2916,-282 3056,-282 3056,-230 2916,-230"/>
</g>
<g id="clust42" class="cluster">
<title>cluster_GithubAppModule_providers</title>
<polygon fill="none" stroke="black" points="2726,-230 2726,-282 2908,-282 2908,-230 2726,-230"/>
</g>
<g id="clust55" class="cluster">
<title>cluster_LicensesModule</title>
<polygon fill="none" stroke="black" stroke-dasharray="1,5" points="3110,-70 3110,-138 3290,-138 3290,-70 3110,-70"/>
</g>
<g id="clust60" class="cluster">
<title>cluster_LicensesModule_providers</title>
<polygon fill="none" stroke="black" points="3118,-78 3118,-130 3282,-130 3282,-78 3118,-78"/>
</g>
<g id="clust67" class="cluster">
<title>cluster_RepositoryModule</title>
<polygon fill="none" stroke="black" stroke-dasharray="1,5" points="8,-146 8,-214 610,-214 610,-146 8,-146"/>
</g>
<g id="clust69" class="cluster">
<title>cluster_RepositoryModule_imports</title>
<polygon fill="none" stroke="black" points="350,-154 350,-206 602,-206 602,-154 350,-154"/>
</g>
<g id="clust70" class="cluster">
<title>cluster_RepositoryModule_exports</title>
<polygon fill="none" stroke="black" points="204,-154 204,-206 342,-206 342,-154 204,-154"/>
</g>
<g id="clust72" class="cluster">
<title>cluster_RepositoryModule_providers</title>
<polygon fill="none" stroke="black" points="16,-154 16,-206 196,-206 196,-154 16,-154"/>
</g>
<g id="clust85" class="cluster">
<title>cluster_VulnerabilitiesModule</title>
<polygon fill="none" stroke="black" stroke-dasharray="1,5" points="3298,-70 3298,-138 3524,-138 3524,-70 3298,-70"/>
</g>
<g id="clust90" class="cluster">
<title>cluster_VulnerabilitiesModule_providers</title>
<polygon fill="none" stroke="black" points="3306,-78 3306,-130 3516,-130 3516,-78 3306,-78"/>
</g>
<!-- AuthModule -->
<g id="node1" class="node">
<title>AuthModule</title>
<polygon fill="#8dd3c7" stroke="black" points="1708.55,-274 1705.55,-278 1684.55,-278 1681.55,-274 1621.45,-274 1621.45,-238 1708.55,-238 1708.55,-274"/>
<text text-anchor="middle" x="1665" y="-251.8" font-family="Times,serif" font-size="14.00">AuthModule</text>
</g>
<!-- AppModule -->
<g id="node15" class="node">
<title>AppModule</title>
<polygon fill="#8dd3c7" stroke="black" points="1643.66,-339 1640.66,-343 1619.66,-343 1616.66,-339 1560.34,-339 1560.34,-303 1643.66,-303 1643.66,-339"/>
<text text-anchor="middle" x="1602" y="-316.8" font-family="Times,serif" font-size="14.00">AppModule</text>
</g>
<!-- AuthModule&#45;&gt;AppModule -->
<g id="edge1" class="edge">
<title>AuthModule&#45;&gt;AppModule</title>
<path fill="none" stroke="black" d="M1632.53,-274.11C1632.53,-274.11 1632.53,-292.99 1632.53,-292.99"/>
<polygon fill="black" stroke="black" points="1629.03,-292.99 1632.53,-302.99 1636.03,-292.99 1629.03,-292.99"/>
</g>
<!-- DependenciesModule -->
<g id="node2" class="node">
<title>DependenciesModule</title>
<polygon fill="#8dd3c7" stroke="black" points="2510.06,-198 2507.06,-202 2486.06,-202 2483.06,-198 2371.94,-198 2371.94,-162 2510.06,-162 2510.06,-198"/>
<text text-anchor="middle" x="2441" y="-175.8" font-family="Times,serif" font-size="14.00">DependenciesModule</text>
</g>
<!-- RepositoryModule -->
<g id="node10" class="node">
<title>RepositoryModule</title>
<polygon fill="#8dd3c7" stroke="black" points="1847.49,-274 1844.49,-278 1823.49,-278 1820.49,-274 1726.51,-274 1726.51,-238 1847.49,-238 1847.49,-274"/>
<text text-anchor="middle" x="1787" y="-251.8" font-family="Times,serif" font-size="14.00">RepositoryModule</text>
</g>
<!-- DependenciesModule&#45;&gt;RepositoryModule -->
<g id="edge38" class="edge">
<title>DependenciesModule&#45;&gt;RepositoryModule</title>
<path fill="none" stroke="black" d="M2417.99,-198.01C2417.99,-220.49 2417.99,-256 2417.99,-256 2417.99,-256 1857.5,-256 1857.5,-256"/>
<polygon fill="black" stroke="black" points="1857.5,-252.5 1847.5,-256 1857.5,-259.5 1857.5,-252.5"/>
</g>
<!-- DependenciesModule&#45;&gt;AppModule -->
<g id="edge2" class="edge">
<title>DependenciesModule&#45;&gt;AppModule</title>
<path fill="none" stroke="black" d="M2464.01,-198.27C2464.01,-238.06 2464.01,-329 2464.01,-329 2464.01,-329 1653.87,-329 1653.87,-329"/>
<polygon fill="black" stroke="black" points="1653.87,-325.5 1643.87,-329 1653.87,-332.5 1653.87,-325.5"/>
</g>
<!-- DependenciesService  -->
<g id="node21" class="node">
<title>DependenciesService </title>
<polygon fill="#fb8072" stroke="black" points="3085.99,-122 2946.01,-122 2946.01,-86 3085.99,-86 3085.99,-122"/>
<text text-anchor="middle" x="3016" y="-99.8" font-family="Times,serif" font-size="14.00">DependenciesService </text>
</g>
<!-- DependenciesModule&#45;&gt;DependenciesService  -->
<g id="edge26" class="edge">
<title>DependenciesModule&#45;&gt;DependenciesService </title>
<path fill="none" stroke="black" stroke-dasharray="5,2" d="M2441,-161.97C2441,-155.15 2441,-149 2441,-149 2441,-149 2997.12,-149 2997.12,-149 2997.12,-149 2997.12,-132.04 2997.12,-132.04"/>
<polygon fill="black" stroke="black" points="3000.62,-132.04 2997.12,-122.04 2993.62,-132.04 3000.62,-132.04"/>
</g>
<!-- DependencySchemaModule -->
<g id="node3" class="node">
<title>DependencySchemaModule</title>
<polygon fill="#8dd3c7" stroke="black" points="2527.83,-122 2524.83,-126 2503.83,-126 2500.83,-122 2354.17,-122 2354.17,-86 2527.83,-86 2527.83,-122"/>
<text text-anchor="middle" x="2441" y="-99.8" font-family="Times,serif" font-size="14.00">DependencySchemaModule</text>
</g>
<!-- DependencySchemaModule&#45;&gt;DependenciesModule -->
<g id="edge25" class="edge">
<title>DependencySchemaModule&#45;&gt;DependenciesModule</title>
<path fill="none" stroke="black" d="M2406.48,-122.01C2406.48,-122.01 2406.48,-151.85 2406.48,-151.85"/>
<polygon fill="black" stroke="black" points="2402.98,-151.85 2406.48,-161.85 2409.98,-151.85 2402.98,-151.85"/>
</g>
<!-- VulnerabilitiesModule -->
<g id="node13" class="node">
<title>VulnerabilitiesModule</title>
<polygon fill="#8dd3c7" stroke="black" points="2354.25,-198 2351.25,-202 2330.25,-202 2327.25,-198 2211.75,-198 2211.75,-162 2354.25,-162 2354.25,-198"/>
<text text-anchor="middle" x="2283" y="-175.8" font-family="Times,serif" font-size="14.00">VulnerabilitiesModule</text>
</g>
<!-- DependencySchemaModule&#45;&gt;VulnerabilitiesModule -->
<g id="edge46" class="edge">
<title>DependencySchemaModule&#45;&gt;VulnerabilitiesModule</title>
<path fill="none" stroke="black" d="M2360.24,-122.01C2360.24,-144.49 2360.24,-180 2360.24,-180 2360.24,-180 2359.66,-180 2359.66,-180"/>
<polygon fill="black" stroke="black" points="2364.43,-176.5 2354.43,-180 2364.43,-183.5 2364.43,-176.5"/>
</g>
<!-- DependencySchemaModule&#45;&gt;AppModule -->
<g id="edge3" class="edge">
<title>DependencySchemaModule&#45;&gt;AppModule</title>
<path fill="none" stroke="black" d="M2366.1,-122.09C2366.1,-174.87 2366.1,-325 2366.1,-325 2366.1,-325 1653.9,-325 1653.9,-325"/>
<polygon fill="black" stroke="black" points="1653.9,-321.5 1643.9,-325 1653.9,-328.5 1653.9,-321.5"/>
</g>
<!-- EmailModule -->
<g id="node4" class="node">
<title>EmailModule</title>
<polygon fill="#8dd3c7" stroke="black" points="1733.49,-198 1730.49,-202 1709.49,-202 1706.49,-198 1640.51,-198 1640.51,-162 1733.49,-162 1733.49,-198"/>
<text text-anchor="middle" x="1687" y="-175.8" font-family="Times,serif" font-size="14.00">EmailModule</text>
</g>
<!-- EmailModule&#45;&gt;AuthModule -->
<g id="edge18" class="edge">
<title>EmailModule&#45;&gt;AuthModule</title>
<path fill="none" stroke="black" d="M1674.64,-198.01C1674.64,-198.01 1674.64,-227.85 1674.64,-227.85"/>
<polygon fill="black" stroke="black" points="1671.14,-227.85 1674.64,-237.85 1678.14,-227.85 1671.14,-227.85"/>
</g>
<!-- EmailModule&#45;&gt;AppModule -->
<g id="edge4" class="edge">
<title>EmailModule&#45;&gt;AppModule</title>
<path fill="none" stroke="black" d="M1640.41,-191C1620.12,-191 1600.87,-191 1600.87,-191 1600.87,-191 1600.87,-292.92 1600.87,-292.92"/>
<polygon fill="black" stroke="black" points="1597.38,-292.92 1600.87,-302.92 1604.38,-292.92 1597.38,-292.92"/>
</g>
<!-- GithubAppModule -->
<g id="node5" class="node">
<title>GithubAppModule</title>
<polygon fill="#8dd3c7" stroke="black" points="1953.05,-198 1950.05,-202 1929.05,-202 1926.05,-198 1830.95,-198 1830.95,-162 1953.05,-162 1953.05,-198"/>
<text text-anchor="middle" x="1892" y="-175.8" font-family="Times,serif" font-size="14.00">GithubAppModule</text>
</g>
<!-- GithubAppModule&#45;&gt;RepositoryModule -->
<g id="edge40" class="edge">
<title>GithubAppModule&#45;&gt;RepositoryModule</title>
<path fill="none" stroke="black" d="M1839.11,-198.01C1839.11,-198.01 1839.11,-227.85 1839.11,-227.85"/>
<polygon fill="black" stroke="black" points="1835.61,-227.85 1839.11,-237.85 1842.61,-227.85 1835.61,-227.85"/>
</g>
<!-- GithubAppModule&#45;&gt;AppModule -->
<g id="edge5" class="edge">
<title>GithubAppModule&#45;&gt;AppModule</title>
<path fill="none" stroke="black" d="M1900.38,-198.21C1900.38,-234.21 1900.38,-311 1900.38,-311 1900.38,-311 1653.8,-311 1653.8,-311"/>
<polygon fill="black" stroke="black" points="1653.8,-307.5 1643.8,-311 1653.8,-314.5 1653.8,-307.5"/>
</g>
<!-- GithubAppService  -->
<g id="node23" class="node">
<title>GithubAppService </title>
<polygon fill="#fb8072" stroke="black" points="3048.47,-274 2923.53,-274 2923.53,-238 3048.47,-238 3048.47,-274"/>
<text text-anchor="middle" x="2986" y="-251.8" font-family="Times,serif" font-size="14.00">GithubAppService </text>
</g>
<!-- GithubAppModule&#45;&gt;GithubAppService  -->
<g id="edge34" class="edge">
<title>GithubAppModule&#45;&gt;GithubAppService </title>
<path fill="none" stroke="black" stroke-dasharray="5,2" d="M1873.94,-198.04C1873.94,-210.56 1873.94,-225 1873.94,-225 1873.94,-225 2934.88,-225 2934.88,-225 2934.88,-225 2934.88,-227.97 2934.88,-227.97"/>
<polygon fill="black" stroke="black" points="2931.38,-227.97 2934.88,-237.97 2938.38,-227.97 2931.38,-227.97"/>
</g>
<!-- GithubAppSchemaModule -->
<g id="node6" class="node">
<title>GithubAppSchemaModule</title>
<polygon fill="#8dd3c7" stroke="black" points="2139.36,-122 2136.36,-126 2115.36,-126 2112.36,-122 1972.64,-122 1972.64,-86 2139.36,-86 2139.36,-122"/>
<text text-anchor="middle" x="2056" y="-99.8" font-family="Times,serif" font-size="14.00">GithubAppSchemaModule</text>
</g>
<!-- GithubAppSchemaModule&#45;&gt;GithubAppModule -->
<g id="edge31" class="edge">
<title>GithubAppSchemaModule&#45;&gt;GithubAppModule</title>
<path fill="none" stroke="black" d="M2014.28,-122.01C2014.28,-144.49 2014.28,-180 2014.28,-180 2014.28,-180 1963.14,-180 1963.14,-180"/>
<polygon fill="black" stroke="black" points="1963.14,-176.5 1953.14,-180 1963.14,-183.5 1963.14,-176.5"/>
</g>
<!-- GithubAppSchemaModule&#45;&gt;RepositoryModule -->
<g id="edge41" class="edge">
<title>GithubAppSchemaModule&#45;&gt;RepositoryModule</title>
<path fill="none" stroke="black" d="M2056,-122.11C2056,-160.59 2056,-247 2056,-247 2056,-247 1857.7,-247 1857.7,-247"/>
<polygon fill="black" stroke="black" points="1857.7,-243.5 1847.7,-247 1857.7,-250.5 1857.7,-243.5"/>
</g>
<!-- GithubAppSchemaModule&#45;&gt;AppModule -->
<g id="edge6" class="edge">
<title>GithubAppSchemaModule&#45;&gt;AppModule</title>
<path fill="none" stroke="black" d="M2097.72,-122.27C2097.72,-173.36 2097.72,-314 2097.72,-314 2097.72,-314 1653.84,-314 1653.84,-314"/>
<polygon fill="black" stroke="black" points="1653.84,-310.5 1643.84,-314 1653.84,-317.5 1653.84,-310.5"/>
</g>
<!-- LicenseSchemaModule -->
<g id="node7" class="node">
<title>LicenseSchemaModule</title>
<polygon fill="#8dd3c7" stroke="black" points="2693.9,-122 2690.9,-126 2669.9,-126 2666.9,-122 2546.1,-122 2546.1,-86 2693.9,-86 2693.9,-122"/>
<text text-anchor="middle" x="2620" y="-99.8" font-family="Times,serif" font-size="14.00">LicenseSchemaModule</text>
</g>
<!-- LicensesModule -->
<g id="node8" class="node">
<title>LicensesModule</title>
<polygon fill="#8dd3c7" stroke="black" points="2636.03,-198 2633.03,-202 2612.03,-202 2609.03,-198 2527.97,-198 2527.97,-162 2636.03,-162 2636.03,-198"/>
<text text-anchor="middle" x="2582" y="-175.8" font-family="Times,serif" font-size="14.00">LicensesModule</text>
</g>
<!-- LicenseSchemaModule&#45;&gt;LicensesModule -->
<g id="edge36" class="edge">
<title>LicenseSchemaModule&#45;&gt;LicensesModule</title>
<path fill="none" stroke="black" d="M2591.28,-122.01C2591.28,-122.01 2591.28,-151.85 2591.28,-151.85"/>
<polygon fill="black" stroke="black" points="2587.78,-151.85 2591.28,-161.85 2594.78,-151.85 2587.78,-151.85"/>
</g>
<!-- LicenseSchemaModule&#45;&gt;AppModule -->
<g id="edge7" class="edge">
<title>LicenseSchemaModule&#45;&gt;AppModule</title>
<path fill="none" stroke="black" d="M2664.98,-122.2C2664.98,-176.9 2664.98,-336 2664.98,-336 2664.98,-336 1653.67,-336 1653.67,-336"/>
<polygon fill="black" stroke="black" points="1653.67,-332.5 1643.67,-336 1653.67,-339.5 1653.67,-332.5"/>
</g>
<!-- LicensesModule&#45;&gt;AppModule -->
<g id="edge8" class="edge">
<title>LicensesModule&#45;&gt;AppModule</title>
<path fill="none" stroke="black" d="M2582,-198.03C2582,-238.3 2582,-332 2582,-332 2582,-332 1653.8,-332 1653.8,-332"/>
<polygon fill="black" stroke="black" points="1653.8,-328.5 1643.8,-332 1653.8,-335.5 1653.8,-328.5"/>
</g>
<!-- OTPSecretSchemaModule -->
<g id="node9" class="node">
<title>OTPSecretSchemaModule</title>
<polygon fill="#8dd3c7" stroke="black" points="1622.79,-122 1619.79,-126 1598.79,-126 1595.79,-122 1457.21,-122 1457.21,-86 1622.79,-86 1622.79,-122"/>
<text text-anchor="middle" x="1540" y="-99.8" font-family="Times,serif" font-size="14.00">OTPSecretSchemaModule</text>
</g>
<!-- OTPSecretSchemaModule&#45;&gt;AuthModule -->
<g id="edge19" class="edge">
<title>OTPSecretSchemaModule&#45;&gt;AuthModule</title>
<path fill="none" stroke="black" d="M1622.79,-110C1628.22,-110 1631.57,-110 1631.57,-110 1631.57,-110 1631.57,-227.8 1631.57,-227.8"/>
<polygon fill="black" stroke="black" points="1628.07,-227.8 1631.57,-237.8 1635.07,-227.8 1628.07,-227.8"/>
</g>
<!-- OTPSecretSchemaModule&#45;&gt;EmailModule -->
<g id="edge28" class="edge">
<title>OTPSecretSchemaModule&#45;&gt;EmailModule</title>
<path fill="none" stroke="black" d="M1590.7,-122.03C1590.7,-141.58 1590.7,-170 1590.7,-170 1590.7,-170 1630.26,-170 1630.26,-170"/>
<polygon fill="black" stroke="black" points="1630.26,-173.5 1640.26,-170 1630.26,-166.5 1630.26,-173.5"/>
</g>
<!-- OTPSecretSchemaModule&#45;&gt;AppModule -->
<g id="edge9" class="edge">
<title>OTPSecretSchemaModule&#45;&gt;AppModule</title>
<path fill="none" stroke="black" d="M1570.35,-122.13C1570.35,-122.13 1570.35,-292.77 1570.35,-292.77"/>
<polygon fill="black" stroke="black" points="1566.85,-292.77 1570.35,-302.77 1573.85,-292.77 1566.85,-292.77"/>
</g>
<!-- RepositoryModule&#45;&gt;AppModule -->
<g id="edge10" class="edge">
<title>RepositoryModule&#45;&gt;AppModule</title>
<path fill="none" stroke="black" d="M1787,-274.12C1787,-288.78 1787,-307 1787,-307 1787,-307 1653.98,-307 1653.98,-307"/>
<polygon fill="black" stroke="black" points="1653.98,-303.5 1643.98,-307 1653.98,-310.5 1653.98,-303.5"/>
</g>
<!-- RepositoryService  -->
<g id="node27" class="node">
<title>RepositoryService </title>
<polygon fill="#fb8072" stroke="black" points="334.42,-198 211.58,-198 211.58,-162 334.42,-162 334.42,-198"/>
<text text-anchor="middle" x="273" y="-175.8" font-family="Times,serif" font-size="14.00">RepositoryService </text>
</g>
<!-- RepositoryModule&#45;&gt;RepositoryService  -->
<g id="edge44" class="edge">
<title>RepositoryModule&#45;&gt;RepositoryService </title>
<path fill="none" stroke="black" stroke-dasharray="5,2" d="M1758.6,-237.85C1758.6,-225.73 1758.6,-212 1758.6,-212 1758.6,-212 273,-212 273,-212 273,-212 273,-208.24 273,-208.24"/>
<polygon fill="black" stroke="black" points="276.5,-208.24 273,-198.24 269.5,-208.24 276.5,-208.24"/>
</g>
<!-- RepositorySchemaModule -->
<g id="node11" class="node">
<title>RepositorySchemaModule</title>
<polygon fill="#8dd3c7" stroke="black" points="1954.8,-122 1951.8,-126 1930.8,-126 1927.8,-122 1789.2,-122 1789.2,-86 1954.8,-86 1954.8,-122"/>
<text text-anchor="middle" x="1872" y="-99.8" font-family="Times,serif" font-size="14.00">RepositorySchemaModule</text>
</g>
<!-- RepositorySchemaModule&#45;&gt;GithubAppModule -->
<g id="edge32" class="edge">
<title>RepositorySchemaModule&#45;&gt;GithubAppModule</title>
<path fill="none" stroke="black" d="M1892,-122.01C1892,-122.01 1892,-151.85 1892,-151.85"/>
<polygon fill="black" stroke="black" points="1888.5,-151.85 1892,-161.85 1895.5,-151.85 1888.5,-151.85"/>
</g>
<!-- RepositorySchemaModule&#45;&gt;RepositoryModule -->
<g id="edge42" class="edge">
<title>RepositorySchemaModule&#45;&gt;RepositoryModule</title>
<path fill="none" stroke="black" d="M1816.93,-122.03C1816.93,-122.03 1816.93,-227.99 1816.93,-227.99"/>
<polygon fill="black" stroke="black" points="1813.43,-227.99 1816.93,-237.99 1820.43,-227.99 1813.43,-227.99"/>
</g>
<!-- RepositorySchemaModule&#45;&gt;AppModule -->
<g id="edge11" class="edge">
<title>RepositorySchemaModule&#45;&gt;AppModule</title>
<path fill="none" stroke="black" d="M1803.14,-122.07C1803.14,-157.35 1803.14,-232 1803.14,-232 1803.14,-232 1611.05,-232 1611.05,-232 1611.05,-232 1611.05,-292.99 1611.05,-292.99"/>
<polygon fill="black" stroke="black" points="1607.55,-292.99 1611.05,-302.99 1614.55,-292.99 1607.55,-292.99"/>
</g>
<!-- UserSchemaModule -->
<g id="node12" class="node">
<title>UserSchemaModule</title>
<polygon fill="#8dd3c7" stroke="black" points="1771.29,-122 1768.29,-126 1747.29,-126 1744.29,-122 1640.71,-122 1640.71,-86 1771.29,-86 1771.29,-122"/>
<text text-anchor="middle" x="1706" y="-99.8" font-family="Times,serif" font-size="14.00">UserSchemaModule</text>
</g>
<!-- UserSchemaModule&#45;&gt;AuthModule -->
<g id="edge20" class="edge">
<title>UserSchemaModule&#45;&gt;AuthModule</title>
<path fill="none" stroke="black" d="M1640.63,-98C1637.75,-98 1636.04,-98 1636.04,-98 1636.04,-98 1636.04,-227.88 1636.04,-227.88"/>
<polygon fill="black" stroke="black" points="1632.54,-227.88 1636.04,-237.88 1639.54,-227.88 1632.54,-227.88"/>
</g>
<!-- UserSchemaModule&#45;&gt;EmailModule -->
<g id="edge29" class="edge">
<title>UserSchemaModule&#45;&gt;EmailModule</title>
<path fill="none" stroke="black" d="M1702.61,-122.01C1702.61,-122.01 1702.61,-151.85 1702.61,-151.85"/>
<polygon fill="black" stroke="black" points="1699.11,-151.85 1702.61,-161.85 1706.11,-151.85 1699.11,-151.85"/>
</g>
<!-- UserSchemaModule&#45;&gt;GithubAppModule -->
<g id="edge33" class="edge">
<title>UserSchemaModule&#45;&gt;GithubAppModule</title>
<path fill="none" stroke="black" d="M1764.87,-122.01C1764.87,-144.49 1764.87,-180 1764.87,-180 1764.87,-180 1820.67,-180 1820.67,-180"/>
<polygon fill="black" stroke="black" points="1820.67,-183.5 1830.67,-180 1820.67,-176.5 1820.67,-183.5"/>
</g>
<!-- UserSchemaModule&#45;&gt;RepositoryModule -->
<g id="edge43" class="edge">
<title>UserSchemaModule&#45;&gt;RepositoryModule</title>
<path fill="none" stroke="black" d="M1752.32,-122.03C1752.32,-122.03 1752.32,-227.99 1752.32,-227.99"/>
<polygon fill="black" stroke="black" points="1748.82,-227.99 1752.32,-237.99 1755.82,-227.99 1748.82,-227.99"/>
</g>
<!-- UserSchemaModule&#45;&gt;AppModule -->
<g id="edge12" class="edge">
<title>UserSchemaModule&#45;&gt;AppModule</title>
<path fill="none" stroke="black" d="M1671.73,-122.19C1671.73,-137.18 1671.73,-156 1671.73,-156 1671.73,-156 1580.52,-156 1580.52,-156 1580.52,-156 1580.52,-292.71 1580.52,-292.71"/>
<polygon fill="black" stroke="black" points="1577.02,-292.71 1580.52,-302.71 1584.02,-292.71 1577.02,-292.71"/>
</g>
<!-- VulnerabilitiesModule&#45;&gt;AppModule -->
<g id="edge13" class="edge">
<title>VulnerabilitiesModule&#45;&gt;AppModule</title>
<path fill="none" stroke="black" d="M2283,-198.14C2283,-236.23 2283,-321 2283,-321 2283,-321 1653.83,-321 1653.83,-321"/>
<polygon fill="black" stroke="black" points="1653.83,-317.5 1643.83,-321 1653.83,-324.5 1653.83,-317.5"/>
</g>
<!-- VulnerabilitySchemaModule -->
<g id="node14" class="node">
<title>VulnerabilitySchemaModule</title>
<polygon fill="#8dd3c7" stroke="black" points="2336.02,-122 2333.02,-126 2312.02,-126 2309.02,-122 2157.98,-122 2157.98,-86 2336.02,-86 2336.02,-122"/>
<text text-anchor="middle" x="2247" y="-99.8" font-family="Times,serif" font-size="14.00">VulnerabilitySchemaModule</text>
</g>
<!-- VulnerabilitySchemaModule&#45;&gt;VulnerabilitiesModule -->
<g id="edge47" class="edge">
<title>VulnerabilitySchemaModule&#45;&gt;VulnerabilitiesModule</title>
<path fill="none" stroke="black" d="M2273.94,-122.01C2273.94,-122.01 2273.94,-151.85 2273.94,-151.85"/>
<polygon fill="black" stroke="black" points="2270.44,-151.85 2273.94,-161.85 2277.44,-151.85 2270.44,-151.85"/>
</g>
<!-- VulnerabilitySchemaModule&#45;&gt;AppModule -->
<g id="edge14" class="edge">
<title>VulnerabilitySchemaModule&#45;&gt;AppModule</title>
<path fill="none" stroke="black" d="M2184.68,-122.25C2184.68,-174 2184.68,-318 2184.68,-318 2184.68,-318 1653.91,-318 1653.91,-318"/>
<polygon fill="black" stroke="black" points="1653.91,-314.5 1643.91,-318 1653.91,-321.5 1653.91,-314.5"/>
</g>
<!-- AppService -->
<g id="node16" class="node">
<title>AppService</title>
<ellipse fill="#fdb462" stroke="black" cx="1096" cy="-104" rx="56.74" ry="18"/>
<text text-anchor="middle" x="1096" y="-99.8" font-family="Times,serif" font-size="14.00">AppService</text>
</g>
<!-- AppService&#45;&gt;AppModule -->
<g id="edge15" class="edge">
<title>AppService&#45;&gt;AppModule</title>
<path fill="none" stroke="black" d="M1096,-122.11C1096,-175.74 1096,-330 1096,-330 1096,-330 1550.16,-330 1550.16,-330"/>
<polygon fill="black" stroke="black" points="1550.16,-333.5 1560.16,-330 1550.16,-326.5 1550.16,-333.5"/>
</g>
<!-- AuthService -->
<g id="node17" class="node">
<title>AuthService</title>
<ellipse fill="#fdb462" stroke="black" cx="1230" cy="-104" rx="59.11" ry="18"/>
<text text-anchor="middle" x="1230" y="-99.8" font-family="Times,serif" font-size="14.00">AuthService</text>
</g>
<!-- AuthService&#45;&gt;AuthModule -->
<g id="edge21" class="edge">
<title>AuthService&#45;&gt;AuthModule</title>
<path fill="none" stroke="black" d="M1249.77,-121.14C1249.77,-160.89 1249.77,-256 1249.77,-256 1249.77,-256 1611.35,-256 1611.35,-256"/>
<polygon fill="black" stroke="black" points="1611.35,-259.5 1621.35,-256 1611.35,-252.5 1611.35,-259.5"/>
</g>
<!-- AuthService&#45;&gt;AppModule -->
<g id="edge16" class="edge">
<title>AuthService&#45;&gt;AppModule</title>
<path fill="none" stroke="black" d="M1210.23,-121.03C1210.23,-172.18 1210.23,-321 1210.23,-321 1210.23,-321 1550.07,-321 1550.07,-321"/>
<polygon fill="black" stroke="black" points="1550.07,-324.5 1560.07,-321 1550.07,-317.5 1550.07,-324.5"/>
</g>
<!-- EmailService -->
<g id="node18" class="node">
<title>EmailService</title>
<ellipse fill="#fdb462" stroke="black" cx="1370" cy="-104" rx="63.12" ry="18"/>
<text text-anchor="middle" x="1370" y="-99.8" font-family="Times,serif" font-size="14.00">EmailService</text>
</g>
<!-- EmailService&#45;&gt;AuthModule -->
<g id="edge22" class="edge">
<title>EmailService&#45;&gt;AuthModule</title>
<path fill="none" stroke="black" d="M1370,-122.11C1370,-160.59 1370,-247 1370,-247 1370,-247 1611.15,-247 1611.15,-247"/>
<polygon fill="black" stroke="black" points="1611.15,-250.5 1621.15,-247 1611.15,-243.5 1611.15,-250.5"/>
</g>
<!-- EmailService&#45;&gt;EmailModule -->
<g id="edge30" class="edge">
<title>EmailService&#45;&gt;EmailModule</title>
<path fill="none" stroke="black" d="M1401.53,-119.84C1401.53,-141.31 1401.53,-177 1401.53,-177 1401.53,-177 1630.5,-177 1630.5,-177"/>
<polygon fill="black" stroke="black" points="1630.5,-180.5 1640.5,-177 1630.5,-173.5 1630.5,-180.5"/>
</g>
<!-- EmailService&#45;&gt;AppModule -->
<g id="edge17" class="edge">
<title>EmailService&#45;&gt;AppModule</title>
<path fill="none" stroke="black" d="M1338.47,-119.63C1338.47,-168.01 1338.47,-312 1338.47,-312 1338.47,-312 1550.24,-312 1550.24,-312"/>
<polygon fill="black" stroke="black" points="1550.24,-315.5 1560.24,-312 1550.24,-308.5 1550.24,-315.5"/>
</g>
<!-- JWTRefreshTokenStrategy -->
<g id="node19" class="node">
<title>JWTRefreshTokenStrategy</title>
<ellipse fill="#fdb462" stroke="black" cx="882" cy="-180" rx="116.87" ry="18"/>
<text text-anchor="middle" x="882" y="-175.8" font-family="Times,serif" font-size="14.00">JWTRefreshTokenStrategy</text>
</g>
<!-- JWTRefreshTokenStrategy&#45;&gt;AuthModule -->
<g id="edge23" class="edge">
<title>JWTRefreshTokenStrategy&#45;&gt;AuthModule</title>
<path fill="none" stroke="black" d="M995.98,-184C1204.7,-184 1627.11,-184 1627.11,-184 1627.11,-184 1627.11,-227.83 1627.11,-227.83"/>
<polygon fill="black" stroke="black" points="1623.61,-227.83 1627.11,-237.83 1630.61,-227.83 1623.61,-227.83"/>
</g>
<!-- JwtStrategy -->
<g id="node20" class="node">
<title>JwtStrategy</title>
<ellipse fill="#fdb462" stroke="black" cx="691" cy="-180" rx="56.76" ry="18"/>
<text text-anchor="middle" x="691" y="-175.8" font-family="Times,serif" font-size="14.00">JwtStrategy</text>
</g>
<!-- JwtStrategy&#45;&gt;AuthModule -->
<g id="edge24" class="edge">
<title>JwtStrategy&#45;&gt;AuthModule</title>
<path fill="none" stroke="black" d="M691,-198.03C691,-222.98 691,-265 691,-265 691,-265 1611.26,-265 1611.26,-265"/>
<polygon fill="black" stroke="black" points="1611.26,-268.5 1621.26,-265 1611.26,-261.5 1611.26,-268.5"/>
</g>
<!-- DependenciesService -->
<g id="node22" class="node">
<title>DependenciesService</title>
<ellipse fill="#fdb462" stroke="black" cx="2828" cy="-104" rx="94.3" ry="18"/>
<text text-anchor="middle" x="2828" y="-99.8" font-family="Times,serif" font-size="14.00">DependenciesService</text>
</g>
<!-- DependenciesService&#45;&gt;DependenciesModule -->
<g id="edge27" class="edge">
<title>DependenciesService&#45;&gt;DependenciesModule</title>
<path fill="none" stroke="black" d="M2844.91,-122.11C2844.91,-131.9 2844.91,-142 2844.91,-142 2844.91,-142 2475.52,-142 2475.52,-142 2475.52,-142 2475.52,-151.89 2475.52,-151.89"/>
<polygon fill="black" stroke="black" points="2472.02,-151.89 2475.52,-161.89 2479.02,-151.89 2472.02,-151.89"/>
</g>
<!-- DependenciesService&#45;&gt;VulnerabilitiesModule -->
<g id="edge48" class="edge">
<title>DependenciesService&#45;&gt;VulnerabilitiesModule</title>
<path fill="none" stroke="black" d="M2789.38,-120.54C2789.38,-125.19 2789.38,-129 2789.38,-129 2789.38,-129 2342.2,-129 2342.2,-129 2342.2,-129 2342.2,-151.88 2342.2,-151.88"/>
<polygon fill="black" stroke="black" points="2338.7,-151.88 2342.2,-161.88 2345.7,-151.88 2338.7,-151.88"/>
</g>
<!-- GithubAppService -->
<g id="node24" class="node">
<title>GithubAppService</title>
<ellipse fill="#fdb462" stroke="black" cx="2817" cy="-256" rx="83.39" ry="18"/>
<text text-anchor="middle" x="2817" y="-251.8" font-family="Times,serif" font-size="14.00">GithubAppService</text>
</g>
<!-- GithubAppService&#45;&gt;GithubAppModule -->
<g id="edge35" class="edge">
<title>GithubAppService&#45;&gt;GithubAppModule</title>
<path fill="none" stroke="black" d="M2744.53,-265C2532.27,-265 1926.83,-265 1926.83,-265 1926.83,-265 1926.83,-208.03 1926.83,-208.03"/>
<polygon fill="black" stroke="black" points="1930.33,-208.03 1926.83,-198.03 1923.33,-208.03 1930.33,-208.03"/>
</g>
<!-- LicensesService -->
<g id="node25" class="node">
<title>LicensesService</title>
<ellipse fill="#fdb462" stroke="black" cx="3200" cy="-104" rx="73.55" ry="18"/>
<text text-anchor="middle" x="3200" y="-99.8" font-family="Times,serif" font-size="14.00">LicensesService</text>
</g>
<!-- LicensesService&#45;&gt;LicensesModule -->
<g id="edge37" class="edge">
<title>LicensesService&#45;&gt;LicensesModule</title>
<path fill="none" stroke="black" d="M3200,-122.01C3200,-144.49 3200,-180 3200,-180 3200,-180 2646.03,-180 2646.03,-180"/>
<polygon fill="black" stroke="black" points="2646.03,-176.5 2636.03,-180 2646.03,-183.5 2646.03,-176.5"/>
</g>
<!-- DependencyRepositorySchemaModule -->
<g id="node26" class="node">
<title>DependencyRepositorySchemaModule</title>
<polygon fill="#8dd3c7" stroke="black" points="593.77,-198 590.77,-202 569.77,-202 566.77,-198 358.23,-198 358.23,-162 593.77,-162 593.77,-198"/>
<text text-anchor="middle" x="476" y="-175.8" font-family="Times,serif" font-size="14.00">DependencyRepositorySchemaModule</text>
</g>
<!-- DependencyRepositorySchemaModule&#45;&gt;RepositoryModule -->
<g id="edge39" class="edge">
<title>DependencyRepositorySchemaModule&#45;&gt;RepositoryModule</title>
<path fill="none" stroke="black" d="M476,-198.17C476,-202.05 476,-205 476,-205 476,-205 1746.05,-205 1746.05,-205 1746.05,-205 1746.05,-227.88 1746.05,-227.88"/>
<polygon fill="black" stroke="black" points="1742.55,-227.88 1746.05,-237.88 1749.55,-227.88 1742.55,-227.88"/>
</g>
<!-- RepositoryService -->
<g id="node28" class="node">
<title>RepositoryService</title>
<ellipse fill="#fdb462" stroke="black" cx="106" cy="-180" rx="82.24" ry="18"/>
<text text-anchor="middle" x="106" y="-175.8" font-family="Times,serif" font-size="14.00">RepositoryService</text>
</g>
<!-- RepositoryService&#45;&gt;RepositoryModule -->
<g id="edge45" class="edge">
<title>RepositoryService&#45;&gt;RepositoryModule</title>
<path fill="none" stroke="black" d="M106,-198.11C106,-207.9 106,-218 106,-218 106,-218 1739.77,-218 1739.77,-218 1739.77,-218 1739.77,-227.89 1739.77,-227.89"/>
<polygon fill="black" stroke="black" points="1736.27,-227.89 1739.77,-237.89 1743.27,-227.89 1736.27,-227.89"/>
</g>
<!-- VulnerabilitiesService -->
<g id="node29" class="node">
<title>VulnerabilitiesService</title>
<ellipse fill="#fdb462" stroke="black" cx="3411" cy="-104" rx="97.26" ry="18"/>
<text text-anchor="middle" x="3411" y="-99.8" font-family="Times,serif" font-size="14.00">VulnerabilitiesService</text>
</g>
<!-- VulnerabilitiesService&#45;&gt;VulnerabilitiesModule -->
<g id="edge49" class="edge">
<title>VulnerabilitiesService&#45;&gt;VulnerabilitiesModule</title>
<path fill="none" stroke="black" d="M3411,-122.24C3411,-129.43 3411,-136 3411,-136 3411,-136 2348.14,-136 2348.14,-136 2348.14,-136 2348.14,-151.85 2348.14,-151.85"/>
<polygon fill="black" stroke="black" points="2344.64,-151.85 2348.14,-161.85 2351.64,-151.85 2344.64,-151.85"/>
</g>
</g>
</svg>
